<?xml version="1.0" standalone="no"?>
<!DOCTYPE svg PUBLIC "-//W3C//DTD SVG 1.1//EN" "http://www.w3.org/Graphics/SVG/1.1/DTD/svg11.dtd" >
<svg xmlns="http://www.w3.org/2000/svg">
<metadata></metadata>
<defs>
<font id="street_writerstreetwriternoah" horiz-adv-x="834" >
<font-face units-per-em="2048" ascent="1638" descent="-410" />
<missing-glyph horiz-adv-x="390" />
<glyph horiz-adv-x="0" />
<glyph unicode="&#xd;" horiz-adv-x="390" />
<glyph unicode=" "  horiz-adv-x="390" />
<glyph unicode="&#x09;" horiz-adv-x="390" />
<glyph unicode="&#xa0;" horiz-adv-x="390" />
<glyph unicode="!" horiz-adv-x="640" d="M-20 238q114 -239 325 -238q139 70 60 229q-131 149 -294 146l-15 -18l-53 -28zM33 503q231 -183 461 -91v27q0 93 -8 156l8 82v64v28v36l30 229v27l7 37l23 101l8 36l45 156l7 36l16 28l15 64q39 60 45 119q-203 128 -408 110q-41 -34 -53 -83v-164l-7 -28v-73l-8 -27 q0 -134 -30 -229l-8 -55l-7 -55l-8 -27l-7 -55q-11 -106 -46 -183q-10 -131 -68 -220z" />
<glyph unicode="&#x22;" horiz-adv-x="753" d="M48 974l10 -28q17 -7 19 -20h38q8 19 19 20h19v9v-9l9 9h-9h9q6 18 29 29v-29h-10h10h-10v-19v19v-67q18 -6 19 -18l19 -10h19h-19h19l29 10l-10 -10l19 10h-9h19h-10h10l28 9v9v-9v9h19v10v-10v10h19v9v-9l10 9h-10h10q8 24 28 19l10 10q6 18 19 19l9 19l19 10v18v-18 l10 28l19 19v-10v10l9 19v-10v10q5 22 19 28l10 20v18v-18v18v20v38q-25 7 -29 28h-19h19h-19h-19h-19q-9 -20 -28 -10q-8 -17 -19 -9q-8 -17 -19 -9l-10 -20h-19v-9v9v-9q-17 -9 -19 -19h-19l10 10l9 18v20v-20l10 29l9 19l10 28l9 29v29h10h-10h10v18v-18v18v48 q-7 13 -19 38h-48q-7 -17 -19 -10q-7 -17 -19 -9l-9 -19l-19 -19v9l-10 -9h10h-10q-6 -18 -28 -29q-23 -28 -38 -47v-19v19l-10 -29q-13 -7 -9 -18l-19 -10q-1 -31 -19 -38v-19v19l-10 -28q1 -26 -19 -38q0 -26 -9 -38l-10 -48v9v-47zM516 -357q14 -4 8 -11q6 -1 15 -12 l31 -6h-8h8l23 6h15q8 12 23 6q6 10 16 6q1 5 15 11l-8 -6l8 6q21 2 31 6l23 6q7 11 15 12h16q6 11 15 11l16 6l23 6l-8 -6l8 6l15 6h16v6v-6l7 6h-7h15h-8h8q6 9 23 12h39h30h8h-8h8l23 6h23h31h15q8 12 23 5h16h23h23h8h-8h8l23 6h15h16h30h31l16 6h15h39h30h8h-8h8h23h-8 h8q10 11 31 6h15h16h15h31h23h23h31h23h23l23 -6h16h15h39q6 11 15 6l8 6l23 6v6v-6v6q17 1 23 11q11 5 31 12l7 12l16 6l7 11q11 5 8 12l16 6l7 12l8 11v-6l8 12l7 12l8 18v11v-11v11v24q-14 4 -8 11l-7 6h-16h16h-16v6v-6l-7 6h7h-7h-24h8l-8 6v-6v6h-30h-39h-23h-31h-23 h-15h-16h-23h-15h-39h-15h-31v-6v6v-6h-38h-8h8h-8h-39q-20 1 -30 -6h-16h-38h-16h-30q-22 -1 -31 -6h-31h-8h8h-8h-38q-21 -1 -31 -5h-23h-23h-23l-16 -6h-15h-16h-30h-8h8l-16 -6l8 6l-8 -6h-38q-6 -11 -23 -6h7h-7q-6 -11 -16 -6q-6 -11 -15 -6q-11 -4 -31 -11l-15 -6 l-23 -6v-6v6v-6h-16q-8 -12 -23 -6q-6 -11 -15 -6q-6 -10 -16 -6v-6v6v-6h-15q-6 -10 -15 -5q-6 -11 -16 -6q-6 -11 -15 -6q-6 -11 -16 -6q-6 -11 -15 -6q-6 -11 -15 -6q-6 -10 -16 -6q-2 -5 -8.5 -9t-22.5 -14l-15 -12v6l-8 -6h8h-8q-5 -11 -23 -17q-6 -16 -23 -18v-12v12 v-12q-12 -8 -23 -17v-12v12v-12h-8h8l-8 -6v6v-12v6v-6q-14 -7 -7 -23v6v-6q-15 -8 -8 -18z" />
<glyph unicode="#" horiz-adv-x="636" />
<glyph unicode="$" horiz-adv-x="1138" d="M48 1114q-1 -86 7 -148q47 113 0 208l-7 -37v-23zM93 981q-5 -104 66 -164h82h37q8 9 15 8l15 7q114 44 193 52v-356q-3 -100 8 -164q-216 16 -312 208q108 119 29 238q-69 -12 -119 -52q-79 -398 268 -602q55 -8 89 -7l74 -8q-4 -89 45 -141q139 18 104 178h22 q29 19 59 23q8 13 15 14l8 15l22 15q41 56 89 82q25 35 52 52l8 15l14 15q40 85 82 133l15 60v30q16 58 15 104l7 14v23v22q9 28 8 59v90l-30 126q-13 7 -15 15q-84 18 -134 37q-18 268 -170 453q-81 -55 -60 -148h-82h-22l-52 7l-15 134q-37 21 -66 22q-64 -73 -45 -156 q-347 -26 -319 -453zM197 1033q16 125 118 178q157 31 134 -89q5 -20 0 -30h-22l-15 -7l-15 -8h-22q-86 -44 -178 -44zM434 535l8 -52q74 185 15 349l-8 -44v-38q-10 -30 -7 -59q-14 -96 -8 -156zM575 1211q122 8 216 -45l22 8l7 -37h-74h-30l-104 -15h-22q-17 54 -15 89z M627 906l45 8h52h52q131 0 223 -30v-44l-8 -15q-3 -80 -15 -134q-120 -229 -326 -305l-8 119v75v104v22v30l-7 14v23q4 79 -8 133zM679 698q60 -279 112 8q-13 70 -67 89q-36 -46 -45 -97zM798 587q123 71 67 141q-64 -65 -67 -141zM820 223l90 37l14 22l23 15l7 15l22 15 l38 37l7 15l15 7q37 50 74 75q4 23 -22 22l-45 -37l-22 -8q-7 -13 -15 -14q-7 -13 -15 -15l-22 -23l-15 -22q-90 -80 -134 -141z" />
<glyph unicode="%" horiz-adv-x="636" />
<glyph unicode="&#x26;" horiz-adv-x="486" />
<glyph unicode="'" horiz-adv-x="254" d="M-34 1096l8 1l-8 -1l7 9l1 -8l-4 25q-10 13 3 26l-1 8l1 -8l-3 17l2 -9l-5 25l3 -16q1 30 1 42l5 18l8 2l-8 -2l8 2q-5 9 5 18q-5 9 6 18l-4 16l4 -16l-4 16q18 13 21 30l8 1l-8 -1l6 9l2 -8l-2 8l17 3q9 3 13 20q13 10 26 -4l9 2l-9 -2l17 4l-8 -2l10 -7l-2 9l2 -9l16 3 l-16 -3l16 3q7 -17 29 -20l10 -6q-5 -12 12 -15q-5 -11 11 -15q-5 -11 11 -15q-5 -11 12 -15l4 -25l12 -14q-5 -12 11 -15l3 -17q-3 -24 15 -31l3 -17l6 -32l3 -17l3 -16l6 -33l3 -17l4 -16q10 -13 -4 -26l1 -9l-1 9l5 -25l3 -17l-7 -9l5 -25q-8 -12 -2 -34l-4 -27 q-15 -9 -10 -36q-17 -6 -12 -28q-11 -3 -14 -19l-8 -2l8 2l-16 -3l8 1l-15 -11l-15 -11q-34 -14 -52 7l-17 -3l17 3l-17 -3q-3 11 -20 13q1 19 -21 22q5 11 -11 15l-13 23q5 11 -11 15q5 17 -13 23q-8 29 -16 39l-6 33l-12 15z" />
<glyph unicode="(" horiz-adv-x="480" d="M36 352l10 -10v-117q32 -13 30 -43h9h-9h9q10 -19 20 -21l10 -32v-21h10h-10h10l10 -32q18 -8 10 -21q18 -9 10 -22h10h-10h10l19 -32v11v-11q19 -7 20 -21q26 -8 30 -32h20h-20h20v-21h9h-9l9 -11v11v-11q19 -7 30 -32q31 -5 30 -31l19 -11q33 -3 40 -32h40q7 19 19 11 q8 19 20 10q3 36 30 43l10 21v21v-21v21l19 11v21v-21v21q14 8 10 21h10h-10h10l10 22l10 32q0 24 -20 21v11v-11v11h-20h20h-20q-9 19 -19 21q-22 7 -20 21q-33 -3 -40 21h-10h10h-19h9q-13 7 -29 11h10l-10 11v-11v11q-19 7 -20 21q-18 7 -20 21q-37 -2 -39 32 q-28 -3 -20 32q-34 11 -40 53l-29 11v21h-10h10h-10v53q-18 8 -10 21q-24 9 -20 32v32l-10 32l-10 32l10 -11l-10 11v21v53q-32 -8 -29 22v32v21v53v21v43v21v21v43v21v21v22v21v43v10v-10v21v-11v21v-10v21v-11v22v-11v21v-10v21v-11v11q-1 30 10 42l10 32v54v53l9 21v53 v32l10 32v32q14 8 10 21v32h10h-10h10l10 32v21v-21v32v-11l10 11h-10h10v53q13 8 10 21q13 8 10 21l19 11q1 35 30 53q-3 42 20 53q4 42 -30 32q-8 -19 -20 -10l-9 -11v-21v21v-21l-20 -11l-10 -21v11v-22v11v-11q-14 -8 -10 -21l-10 -11q-7 -22 -20 -21l-10 -32v11v-32h-9 h9q-13 -11 -19 -43v22v-22h-10h10h-10l-10 -21l-10 -32v-42q-14 -9 -10 -43q-14 -8 -10 -42h-10h10l-10 -11v11v-43v11l-10 -11h10h-10v-42q-18 -14 -9 -32l-10 -32v-43q-19 -13 -10 -32v-53q-19 -13 -10 -32v-85l-10 -10v-22v22v-628z" />
<glyph unicode=")" horiz-adv-x="384" d="M-80 1589q0 -25 20 -21v-11v11v-11h19h-19h19q10 -19 20 -22q21 -7 20 -21q32 3 39 -21l10 -1l-10 1l20 -1h-10q13 -6 30 -10h-10l9 -11l1 11l-1 -11q19 -7 20 -21q19 -8 20 -22q37 2 39 -32q28 3 20 -32q34 -11 39 -53l29 -11v-21h10h-10h10v-54q18 -8 10 -21 q24 -9 19 -32v-32l10 -32l9 -32l-10 11l10 -11v-21v-53q32 8 29 -22v-32v-21v-53v-21l-1 -43v-21v-21v-43v-21l-1 -21v-22v-21v-42v-11v11v-22v11v-21v10v-21v11v-22v11v-21v10l-1 -21l1 11l-1 -11q1 -30 -10 -42l-10 -32v-53v-54l-10 -21l-1 -53v-32l-10 -32v-32 q-14 -8 -10 -21l-1 -32h-9h9h-9l-11 -31v-22v22v-32v10l-10 -10h10h-10v-53q-14 -9 -10 -22q-14 -8 -10 -21l-20 -10q-1 -35 -30 -53q3 -42 -20 -53q-5 -41 29 -32q8 19 20 10l10 11v21v-21v21l20 10l10 22v-11v21v-10v10q14 8 10 21l10 11q7 23 20 21l10 32v-11v32h10h-10 q14 11 21 43l-1 -22l1 22h9h-9h9l10 21l11 32v42q13 8 10 43q14 8 10 42h10h-10l10 11v-11v43v-11l10 11h-10h10v42q19 14 11 32l10 32v42q19 14 10 32v53q19 14 10 32l1 85l10 11v21v-21l4 627l-10 11l1 117q-32 13 -30 42h-9h9h-9q-10 20 -20 22l-10 32v21h-10h10h-10 l-9 32q-18 9 -10 21q-18 9 -10 22h-10h10h-10l-19 32v-11v11q-19 7 -20 21q-25 9 -29 32h-20h20h-20v22h-10h10l-10 10v-10v10q-18 8 -29 33q-31 5 -30 32l-19 10q-33 4 -40 33h-39q-8 -20 -20 -11q-8 -19 -20 -10q-3 -36 -30 -43l-10 -21v-21v21v-21l-20 -11v-21v21v-21 q-14 -8 -10 -21h-10h10h-10l-10 -21z" />
<glyph unicode="*" horiz-adv-x="680" d="M86 1080h4h-4l4 -4v4v-4h20l8 4l12 4q4 8 12 4q3 7 8 4l8 4l8 4l8 4h12q0 4 8 8l-4 -4l4 4l12 4l-4 -4l4 4h12h-4h4l12 4h16h4h-4h4q5 8 16 4h4h-4l8 4l-4 -4l4 4h20l-4 -4v-12q-8 -5 -4 -12q-8 -5 -4 -12l-4 -4v-12v4l-4 -4h4h-4v-16h-4h4h-4v-20q-8 -5 -4 -12l-4 -12 l-4 -24l-4 -12l-4 -20l-4 -20l-4 -16v-12v4v-8v4v-4q-8 -5 -4 -20q7 -3 4 -8q8 -3 8 -8l8 -4h8h-8h8l8 4h8q6 5 16 4l4 8h8l4 8l12 4l4 8v-4l4 4h-4h4q3 8 12 12q3 10 12 12q4 14 12 16v8v-8v8h4h-4l4 4v-4v8v-4v4q8 5 4 12q6 3 4 8l4 8v8l4 8v12v-4v8v-4v4q8 5 4 12v8 q6 3 4 8v12h4h-4l4 4v-4v4v12v-4l4 4h-4h4v16q8 -3 8 -8q8 -3 8 -8h4h-4l4 -4v4v-4q8 -3 8 -8q8 -3 8 -8h4h-4l4 -4v4v-4q8 -3 8 -8q12 -9 16 -16v4v-4q10 -3 8 -12q8 -3 8 -8q13 -1 16 -12h8h-8h8v-4v4v-4l12 -4l12 -4h8h8h20q3 7 8 4l4 4q3 10 12 12v8v-8v8l4 8v8v-8v12 v-4v4q-8 5 -4 16q-7 3 -4 8q-7 3 -4 8h-4h4h-4l-4 8v-4v4q-8 3 -8 8q-7 3 -4 8q-8 5 -12 12v-4v4q-8 3 -8 8q-10 3 -12 12q-10 3 -12 12q-16 3 -20 16q-13 5 -12 16h8h8l12 4l-4 -4l8 4h-4h4q10 -2 20 4h12h12l8 4h12l12 4l-4 -4l4 4h8h20v4v-4v4h8h16l4 4h8h8q3 7 8 4 q3 7 8 4q3 8 8 8q0 10 8 12v20l-4 4h-8h8h-8h-20h-4h4h-8h4h-4l-12 -4h-20l-4 -4h-12h-12h4h-4q-5 -8 -16 -4h-4h4h-4l-12 -4h-20v-4v4v-4h-20h-4h4l-8 -4l4 4l-4 -4h-20l-8 -4h-8h-12l-4 -4l4 4l-4 -4h-8h-20l4 12l4 12l4 12q6 3 4 8l4 8v-4v8v-4v4q8 5 4 12h4h-4l4 4v-4v4 l4 8v8v-8l4 12q1 6 8 16v8v-8v12v-4v4q8 5 4 12q6 3 4 8l4 8l4 12v8q2 2 4 8v-4l4 8v8v-8v12v-4v4q8 5 4 12l4 8v8v-8v8v20h-4h4h-4l-4 12h-8h8h-12h4h-4q-5 8 -12 4q-5 -8 -16 -4q-3 -7 -8 -4q-3 -7 -8 -4q-3 -10 -12 -8q-5 -13 -20 -16q-3 -8 -8 -8l-4 -8l-8 -4v-8v8 l-4 -12l-8 -8v4l-4 -12v4v-4q-2 -9 -8 -12l-4 -12v4v-16v4l-4 -4h4h-4v-16q-2 -2 -4 -8v4v-8v4v-4q-8 -5 -4 -12l-4 -4q1 -11 -8 -16v-8v8v-8q-13 3 -16 12q-10 0 -12 8h-8h8h-8q-3 8 -12 8q-3 8 -12 8v4v-4v4q-8 3 -8 8l-8 4q-9 2 -12 8l-12 4q-4 7 -8 8q-9 3 -8 8l-12 4 q-3 6 -8 4l-4 8h-8h8h-8l-4 8h-8h8l-12 4q-3 6 -6.5 6t-6.5 1.5t-11 8.5q-11 0 -16 4h-8h8h-8h-16q-4 -8 -12 -4q-3 -7 -8 -4q-3 -10 -12 -12v-8v8v-12v4l-4 -4h4h-4v-16q8 -5 4 -16q7 -3 4 -8q10 -3 8 -12q4 0 8 -8q8 -3 8 -8l12 -4h-4h4q4 -7 8 -8q9 -3 8 -8h4h-4h4 q9 -3 8 -8l12 -4q3 -6 8 -4l4 -8v4v-4l12 -4v-4v4v-4l8 -4l12 -4q4 -7 8 -8l8 -4q3 -8 12 -8l4 -8h8h-8h8l4 -8q10 0 12 -8q10 0 12 -8q10 0 12 -8h-12q-5 -8 -16 -4h-12q-5 -8 -16 -4h-8q0 -4 -8 -4h4h-8h4h-4q-3 -6 -12 -8h-8q-4 -8 -12 -4v-4v4v-4h-8q-6 -5 -16 -4v-4v4 v-4l-8 -4h-8q-6 -5 -16 -4q-3 -7 -8 -4q-3 -7 -8 -4q-3 -7 -8 -4v-4v4l-4 -4h4h-4q-3 -8 -8 -8l-4 -8v4v-8v4v-4q-8 -5 -4 -20z" />
<glyph unicode="+" horiz-adv-x="744" d="M26 858l25 15q-15 -45 -10 -80q29 -12 50 -30q48 -19 76 -41l65 -15l35 -15l10 -5h15q39 -16 75 -20v-55q6 -5 5 -10q0 -47 5 -80q-55 -180 51 -66q54 99 55 196q247 -1 271 236q-20 8 -35 5q-65 -117 -246 -70q0 29 -5 50v15q-5 29 -5 50l-5 20v20l-5 20l-25 86v15 q-18 29 -20 60l-31 5q-54 -57 -75 -115q-1 -31 5 -56q14 -30 15 -55q6 -5 5 -10l10 -40l10 -35l-10 5q-120 31 -195 90q-38 -8 -61 -30v15l5 35q-63 -42 -60 -110zM342 512q32 84 0 155q-20 -86 0 -155zM668 682q126 74 156 201l-15 5q-18 -27 -40 -40q-23 -92 -101 -166z " />
<glyph unicode="," horiz-adv-x="230" d="M-18 -16v-53l7 -7l-7 7l7 -7v-26q13 -7 6 -20l7 -7q12 -4 13 -13l14 -7h13h-13h13h33q18 2 27 7v-100v7l-7 -7h7h-7v-27h-7h7h-7l-6 -13v-20q-4 -2 -7 -13v7v-14v7q-2 -13 -7 -33v13v-33l7 -7l-7 7l7 -7l7 -46q12 -6 6 -14q13 -4 14 -13h33q4 12 13 13q16 20 27 27h-7h7 q2 22 20 26l6 14v-7v7l7 13v-7v7q3 15 13 20l7 13v20l7 14v26h6h-6l6 7v-7v7v20v-7l7 7h-7h7v26v20v27v13v13v27v13v14v13v26v14v13v27v13q0 18 -7 26v14v13v13v14v26q-13 7 -6 20q-9 10 -7 27q-12 5 -7 13q-5 1 -13 13l-26 7h6h-6q-6 -12 -14 -7q-5 -16 -20 -13 q-5 -12 -13 -7l-7 -6q-5 -13 -13 -14l-20 -6q-5 -12 -13 -7q-1 -6 -14 -13l7 7l-13 -7h6h-6q-5 -12 -14 -7q-5 -12 -13 -6q-5 -13 -13 -7l-7 -7v-13v13v-13l-13 -7q2 -22 -13 -40v-13v13v-53v7q-3 -13 -7 -33v13z" />
<glyph unicode="-" d="M84 508l7 -26v-27l7 -8l6 -26q13 -4 14 -16l27 5l20 3l34 6l20 3l27 4l21 4l13 2l14 2l20 3l14 2l33 6l14 2l27 4l27 5l14 2l13 2l14 2l33 6l34 5l21 4l27 4l20 3l13 3l14 2l20 3l14 2l34 6l13 2l27 4q5 18 14 20q1 15 13 38q0 24 7 37v18v-18v18v18v45l-7 8q-1 24 -7 35 q-5 11 -13 33l-20 6l-14 -2l-13 -2l-27 -5l-21 -3l-13 -2l-34 -6l-14 -2l-27 -4l-13 -2l-14 -3l-13 -2l-34 -5l-34 -6l-13 -2l-34 -5l-14 -3l-27 -4l-27 -4l-13 -3l-21 -3l-27 -4l-13 -2l-14 -3l-27 -4l-20 -3l-27 -5l-14 -2l-13 -2l-27 -4q-6 -18 -14 -12l-7 -19v9v-18v9 l-6 -10l6 1q-9 -10 -13 -38v18q1 -42 -7 -55v-9v9v-44z" />
<glyph unicode="." horiz-adv-x="405" d="M9 56q0 80 59 139.5t136 59.5q76 0 128.5 -56t52.5 -141t-55 -143t-133 -58q-76 0 -132 59t-56 140z" />
<glyph unicode="/" horiz-adv-x="1180" d="M72 139l8 -8l-8 8l8 -8v-37q13 -6 7 -15l8 -8q14 -5 15 -15h7h-7h15h-8h15h-7h7l23 8v7v-7v15v-8l8 8h-8l15 7l8 15v15v-15v15q13 8 15 15q3 18 15 23q10 23 22 30h-7h7l8 15v15v-15v15q14 8 15 15q6 25 23 31q-1 19 15 22q0 29 22 38q10 23 23 38l8 15v15v-15v15 q4 3 15 15q7 23 22 30h-7h7l8 15v15v-15v15q13 8 15 15l7 23v-8l8 8h-8h8q0 24 15 30v15v-15v15h8h-8h8l7 23h8h-8h8l7 15v15v-15v15q11 6 8 15l7 8l8 15v-8v8q4 17 15 22l7 15l8 16l8 22v-7l7 7h-7h7q0 25 15 30v15v-15v15q11 6 8 15q13 8 15 16l7 15v-8v15v-7v7q11 6 8 15 l7 8q6 16 16 15l7 15q0 24 15 30q0 20 15 23v7v-7v7l8 15v-7v7q4 18 15 23l7 15l8 15l7 23q11 6 8 15l8 7q5 17 15 16l7 15l8 15v15v-15v15l15 7q0 29 22 38l8 15l8 15v15v-15v15q15 7 15 23q10 6 11 12t3.5 12t15.5 21q7 23 15 38v-8v8q15 6 15 23q10 5 7 15l16 7 q0 29 22 38l8 15l7 15v15v-15v15l15 8v15v-15v15q11 6 8 15l7 7q0 20 8 31v15v-15v15v15v15v37v23v-7v7l-8 23l-7 22q-7 1 -15 15l-23 8q-6 -14 -15 -8l-7 -7l-8 -23l-8 -22h-7h7h-7l-8 -23l-7 -15l-8 -15q-5 -16 -15 -15l-7 -15q0 -20 -15 -23q-1 -29 -23 -38 q0 -24 -15 -30q0 -19 -15 -22q-1 -25 -15 -31q0 -19 -15 -22v-8v8v-8q-4 -17 -15 -22l-8 -15l-8 -16v8v-8q-7 -23 -15 -30q-5 -16 -15 -15v-7v7l-7 -22v7v-15v8l-8 -16q-5 -16 -15 -15v-7v7l-7 -22v7v-7q-4 -17 -15 -23l-8 -15q-10 -15 -15 -38v15v-15q-11 -6 -8 -15l-7 -7 q-6 -16 -15 -15v-8v8v-8q-4 -17 -15 -23q-3 -7 -8 -30v15v-15l-15 -7v-15v15l-8 -23q-9 -21 -22 -30l-8 -23q-10 -15 -15 -37v15v-15h-7h7q-10 -8 -15 -31v16v-16l-15 -7h8h-8l-8 -23l-7 -15v8v-8q-4 -17 -15 -22l-8 -23v7v-15v8l-7 -15q-6 -16 -15 -15v-8v8v-8 q-10 -15 -15 -37v15v-15q-11 -6 -8 -16l-7 -7l-8 -15v7v-15v8l-8 -15q-5 -16 -15 -15v-8v8v-8q-3 -17 -22 -30l-8 -23h-7h7q-10 -7 -15 -30v15v-15h-7h7h-7q-4 -17 -16 -22q1 -20 -15 -23q0 -29 -22 -38l-8 -15q0 -20 -15 -23v-7v7v-7l-7 -23q-14 -7 -15 -15q-6 -16 -16 -15 q0 -24 -15 -30v-8v8l-7 -15q-6 -16 -15 -15v-8v8l-8 -23v8v-8q-4 -17 -15 -22q-2 -8 -7 -31v15v-30l-8 -7v-15v15v-53z" />
<glyph unicode="0" horiz-adv-x="870" d="M68 729q-112 -481 227 -683q205 -92 378 16q217 83 315 408q-3 74 6 126l-6 55v141q-19 38 -19 71q-20 34 -25 70l-19 24l-13 31l-19 16l-12 24l-7 15l-12 24q-61 82 -88 141l-70 47q30 198 -132 220q-383 -276 -504 -746zM245 415q46 447 302 699q262 -140 233 -487 q-47 -199 -158 -314q-283 -187 -358 55zM339 564q4 -83 19 -133l19 -24q127 80 19 259h-7h7h-7q-40 -47 -50 -102zM459 423q95 60 56 149q-55 -65 -56 -149z" />
<glyph unicode="1" horiz-adv-x="770" d="M-146 991q49 -394 423 -116v-38l-9 -77l-10 -19l-19 -145l-10 -28v-154q1 -89 -10 -154q-114 -42 -202 -48l-86 -48v-29l19 -116l48 -19h39l67 10q102 13 173 9h29h67l58 10h38h29l29 -10h29h67h39h29h29q70 -13 115 -9l29 48q3 83 19 144q-137 91 -279 96 q124 359 39 683l19 68v28q18 70 19 116l29 135v28l29 116q23 77 19 144q-77 112 -183 154h-57l-68 -38q-174 -471 -567 -703zM46 1212q200 103 250 298h-38q-33 -45 -58 -67q-57 -120 -144 -183z" />
<glyph unicode="2" horiz-adv-x="1118" d="M-62 102q23 -35 56 -34q352 120 662 34q180 -113 354 -96q146 145 194 324q53 259 -97 410q-116 113 -193 -35q-81 -119 -73 -253l-56 26h-25l-56 9q-59 11 -97 9h-24h-24h-161q329 400 419 873q-2 187 -32 306q-39 30 -81 35q-304 -63 -443 -315q-129 281 -267 -131 q-3 -142 81 -235q36 -133 153 -114q185 164 186 393q85 35 153 35q79 -435 -347 -769l-8 -17q-105 -140 -185 -210q-74 -134 -89 -245zM115 59l17 -18h32h32l24 -8h89h56h25h24q75 -3 129 8q69 3 113 44l-137 9h-25h-24h-250q-63 -13 -105 -35zM244 1448q117 60 105 183 q-77 -90 -105 -183zM551 548l48 -17q34 34 65 52q39 -73 113 -26l8 17q55 42 80 105q-15 119 -121 53q59 131 -32 148q-149 -140 -161 -332zM712 950q121 144 161 314l-16 27l-8 -27l-40 -52q-16 -53 -32 -87l-9 -27l-8 -17q-35 -80 -48 -131z" />
<glyph unicode="3" horiz-adv-x="1030" d="M-50 307q0 -58 17 -93l40 -10l40 -9l34 -9l35 -9l34 -10q64 -26 108 -28l29 -9h28l23 -9h17l12 -9q61 0 102 -19h29l34 -9l29 -10l22 -9h29l23 -9h17l17 -10l23 -9h28q34 -19 63 -18q32 -17 57 -19q55 9 92 37q272 537 -132 939q20 43 40 65l12 28l11 18l12 10 q13 30 34 46q28 64 63 102q21 144 -35 233q-75 53 -131 65l-34 9h-34l-29 9l-28 10h-18q-88 32 -142 37l-23 9h-17l-40 19l-52 9l-28 9h-23l-23 10q-27 9 -45 9l-18 9h-17l-45 19h-23l-91 9q-42 -39 -52 -102q7 -10 6 -19l34 -139l12 -19l22 -65l29 -46l6 -28l11 -10l6 -27 q59 -110 80 -223q25 -34 40 -65q74 -51 131 18l6 65q-7 14 -6 28l-6 28l-11 28l-6 28l-11 28l-6 27l-12 19l-5 28q-43 77 -63 139h34l34 -9l23 -9l17 -10l63 -9l57 -18h17l12 -10l40 -9h17q66 -23 108 -28q21 -272 -177 -400l-17 -65l12 -27q33 -23 57 -56l11 -10l97 -111 l29 -37q88 -82 137 -205q1 -53 -6 -93l-11 -9l-23 9h-17q-27 10 -46 10l-34 9l-23 9q-27 9 -46 10l-17 9q-41 7 -68 18l-75 10l-79 18l-69 10q-95 20 -148 46q-7 144 34 251l-11 28q-202 -133 -263 -418zM7 1394q9 -12 11 -28l18 -18l11 -28l11 -19q33 -122 75 -195l22 28 v28l-11 28l-11 27l-6 19l-6 19l-11 27l-6 28q-7 10 -6 19l-57 121h-23zM218 502q50 26 40 121h-17q-25 -58 -23 -121zM578 1032q82 33 103 185q-38 14 -58 -46q-6 78 -40 121q-62 -135 -5 -260zM863 985l17 9q32 48 57 75q29 62 57 93l6 18l12 19l11 9l6 19l11 9 q21 45 40 74l-6 19l-11 -19l-40 -37l-17 -28l-12 -28q-89 -125 -131 -232z" />
<glyph unicode="4" horiz-adv-x="1010" d="M-70 535q34 -20 60 -7l60 15q10 9 20 8l13 15h20q26 20 54 23l106 46h94l26 8h27h20h33h20h27h20h133v-39q-11 -90 -6 -153v-46l-7 -23v-68q-7 -37 -7 -62q-22 -136 -13 -229q20 -22 40 -23q145 155 120 367l7 15v23l6 16v23q1 58 7 91v77l20 8h20q75 -23 133 -16 q100 93 127 215l-7 45l-20 8h-20h-33l-20 8h-27h-20l-13 7h-47h-20q-31 8 -53 8v46l7 38v38v46q8 29 6 62l14 84v30l13 84l13 62v38l7 15v31l7 15v31l13 130l-40 15q-18 -17 -33 -23q-54 -67 -100 -99l-34 -23l-20 -23l-20 -23l-20 -23l-26 -15q-23 -36 -40 -54l-54 -46 q-72 -91 -133 -130l13 23l47 46q7 13 13 15l47 46q23 36 40 54l40 38q24 41 53 61l27 61l-27 -15l-13 -15l-13 -8q-25 -37 -47 -61q-37 -41 -73 -61q-7 -14 -14 -16q-69 -96 -126 -145q-95 -119 33 -23q-33 -50 -73 -76q-7 -14 -14 -16l-13 -15l-67 -69l-13 -8l-7 -15 l-13 -8q-34 -50 -67 -76q-6 -13 -13 -15q-36 -74 -80 -115q-13 -30 -33 -46l-7 -15q-25 -56 -47 -92q-11 -57 -13 -100zM250 857l73 84l27 23l33 30q33 38 60 54l14 23l20 15l73 84l20 8l33 46l14 8l13 7q54 67 100 100l7 -39l-7 -30l-7 -38l-6 -39l-14 -114l-6 -23v-46 l-14 -100h-46h-20h-87l-167 -7q-65 -33 -113 -46zM510 1102q-68 -176 40 -153v23q12 42 7 91q-20 35 -47 39zM577 956q116 93 53 146q-53 -71 -53 -146zM823 382q-2 -102 7 -168l13 8l7 23v23v23v30v23v54q2 102 -7 168l-13 8l-7 -54v-138z" />
<glyph unicode="5" horiz-adv-x="1120" d="M-55 1201q8 -21 7 -40q115 -90 119 -248q69 327 -119 481v-24q-13 -103 -7 -169zM-55 1466q88 -85 119 -184q151 -225 45 -457q-1 -42 14 -72q85 28 142 32h30q42 -2 74 8h82h97h29h52h23h29q115 -1 186 -16q36 -68 52 -112q11 -473 -424 -441h-29h-30h-22h-30h-134 q244 303 0 401q-71 -86 -82 -184q45 -37 60 -81q-256 -127 -253 -336h22l30 -8h126h23h89l22 -8l30 -8h37h104h82h37h23l22 8h59l119 8l149 64l37 48l15 16l82 160q97 417 -126 689l-60 -8l-22 8q-81 -4 -134 8h-74h-30h-30h-30h-29q-12 -9 -23 -8h-30h-22h-52l-164 -24 q68 248 -37 433l37 -8h23h22h149h44h38h22l15 8h104q56 12 97 8l-15 -80l-15 -16q-26 -77 -52 -121v-88q195 -122 245 144l-29 33v64q133 163 134 344h-8h8h-8h-22q-11 -9 -23 -8q-11 -9 -22 -8l-15 -16h-22q-48 -35 -89 -48h-97l-52 -8h-127h-22l-89 -8h-97h-22l-23 8 l-59 8l-186 48q-56 -22 -89 -72q-26 -65 -30 -120zM481 352q173 66 163 273l-30 8q-137 -112 -133 -281zM600 328q43 -84 141 -16l15 24q72 62 104 129q18 99 -67 96q-147 -82 -193 -233zM1105 985q-24 -152 23 -272q0 -124 30 -208v24q7 38 7 64v32v24v32v24v56l-22 176z " />
<glyph unicode="6" horiz-adv-x="1070" d="M-58 469q-25 -162 8 -285q326 -159 646 -101l34 17q33 28 67 42l25 8q11 14 25 17q11 13 25 17l17 17l25 8l9 17l159 109l109 134q79 217 42 419q-115 48 -218 42q-463 72 -529 -293q65 -33 118 -34q26 153 168 126q129 4 184 -84q-11 -403 -596 -176q-14 78 0 134l51 67 l67 67l17 26q8 14 16 16l9 26l25 16q29 58 67 93q35 75 84 117l17 17l17 17l16 8l9 17l17 8q31 41 58 67l25 17q31 45 68 67l16 25q36 32 59 59l59 50l8 17l76 67q8 15 17 17q28 39 58 59l34 59l33 50q41 133 -83 126q-40 -26 -68 -34q-11 -13 -25 -17l-17 -25l-25 -25 l-17 -17l-16 -8q-54 -82 -109 -126l-34 -25l-34 -34l-33 -33q-8 -15 -17 -17q-29 -39 -50 -59l-25 -17l-9 -16l-17 -9q-31 -41 -58 -67l-25 -17q-9 -14 -17 -16l-9 -17l-16 -17l-17 -8l-9 -17l-16 -8q-31 -41 -59 -68l-50 -67l-26 -25l-8 -25l-50 -67l-26 -25 q-29 -58 -67 -84q-51 -86 -109 -134l-8 -26l-17 -8l-8 -25q-46 -68 -67 -126zM183 918q42 14 67 34l25 25l17 25l75 67q40 52 76 84l25 25l25 25l25 34l51 42l8 17l17 8q8 15 17 17q70 104 142 159q6 23 0 34q-8 -10 -17 -8q-21 -29 -50 -42q-65 -81 -126 -118l-25 -33 q-28 -40 -59 -59l-16 -34q-35 -28 -51 -58l-17 -17l-50 -42q-108 -108 -159 -185zM527 474q52 -138 100 -17q30 113 -50 176q-59 -80 -50 -159zM653 423q91 23 109 135l-26 16q-49 -49 -75 -92zM787 88l33 8l17 25l25 17q35 48 76 67q49 77 109 118l-8 25l-9 -17l-25 -8 l-17 -26l-25 -16l-42 -51l-50 -42z" />
<glyph unicode="7" horiz-adv-x="1073" d="M33 1216q143 -102 206 -246q11 -32 24 -55q263 14 262 269h24h63q74 -1 127 8l48 8l-24 -39l-24 -48l-24 -40l-16 -23q-27 -38 -39 -64l-16 -32l-16 -8q-31 -77 -71 -126l-16 -32l-8 -32l-24 -32q-15 -47 -40 -79l-16 -40l-15 -23l-16 -32l-8 -24l-16 -24l-16 -23 l-32 -40l-8 -16l-8 -24l-15 -8q-17 -53 -40 -87q-34 -132 0 -214q106 14 182 79q14 32 40 48l32 55l8 24q11 86 31 143l72 103q29 77 63 127l8 24l56 95l16 40l47 87l40 71l16 24l16 16l8 24l15 15q26 59 56 88q17 51 48 79l7 24l24 55l72 175q17 115 -88 103 q-35 -28 -71 -40l-71 -71l-103 -8h-32h-40h-32h-134h-40q-80 13 -135 8h-24q-58 10 -95 8q-46 -6 -79 -24q-148 -90 -159 -246zM390 1502l87 -16h32h40h23h104h55l143 8l55 31h-23h-24q-38 8 -64 8h-23h-32h-135h-24h-95q-75 -14 -119 -31zM509 1018q106 16 95 135h-24 q-53 -65 -71 -135zM588 1010q104 1 88 95h-32l-56 -55v-40zM795 693l15 16l48 63l8 24l16 16l8 23q63 97 87 167l-8 16l-8 -16l-16 -8l-31 -55l-8 -16l-16 -16l-95 -175v-39z" />
<glyph unicode="8" horiz-adv-x="1070" d="M-59 633q9 -15 8 -31l29 -60l14 -10l8 -20q48 -51 72 -101l117 -70h29l22 -10l22 -20l29 -10l102 -21l22 -10h22l131 -40h29l36 -10h29h30h51l131 -10l58 20l117 50q39 11 72 41q139 540 -276 885q89 164 102 342q-199 256 -437 272q-249 -148 -226 -493l-44 -20l-15 -20 q-159 -92 -255 -242l-21 -121v-30q-18 -156 -8 -261zM160 733q24 349 306 373l29 30q223 -6 401 -232l7 -20l7 -30l58 -151q1 -110 -21 -191l-22 -10l-131 -40l-15 10q-35 10 -58 10l-51 10l-22 10l-22 10l-29 10l-29 20q-87 29 -139 60l-58 10h-22l-94 31q-55 62 -95 90z M255 1669q-31 -189 7 -342q36 184 -7 342zM386 1478q-14 125 73 151q240 -28 393 -242l-29 -60h-146l-58 40l-95 40l-22 11q-67 43 -116 60zM495 965q-80 -209 36 -282l30 70v41l7 20q-10 51 -7 90q-26 56 -66 61zM590 653l14 -30q151 112 131 322h-29l-7 -21 q-67 -71 -95 -161v-30zM903 1226q93 94 95 242h-22q-57 -123 -73 -242z" />
<glyph unicode="9" horiz-adv-x="920" d="M-128 1066q37 151 0 277v-30q-23 -138 0 -247zM-79 997q198 -320 553 -296l-10 -69l-9 -30l-10 -19l-40 -178l-20 -247v-119l30 -39q263 42 326 286v69q3 233 59 386l-10 -60v-49q-14 -40 -10 -79q-18 -127 -9 -207l9 -70l20 10v30l10 69q14 40 10 79l10 69 q128 197 49 395q-22 -81 -69 -138l49 168q155 195 149 424q-27 21 -50 30q38 166 -69 276l-69 20q-117 29 -198 30q-47 9 -79 10h-29q-100 19 -178 10q-464 -242 -415 -761zM247 1155q-32 200 89 326q182 18 286 -99q161 -154 30 -326q-247 -84 -405 99zM385 1402 q-119 -170 20 -286l30 39l20 -49q159 30 187 178q-123 20 -187 -89q34 142 -70 207z" />
<glyph unicode=":" horiz-adv-x="690" d="M66 1069q14 -5 8 -29q13 -6 7 -15q7 -1 15 -14l-7 7l7 -7v-15q19 -6 15 -22h8h-8l8 -8v8v-8q14 -5 15 -14l15 -8h-7q13 -1 22 -15l23 -7q17 -4 23 -15h23l15 -7h38v7v-7v7h15h30l8 8h15q6 13 15 7q6 14 15 7q9 24 30 23l8 14l15 8v14v-14v14l15 8v15v-15v15l15 7 q-1 24 15 44v37h8h-8h8v37l-8 7l8 -7l-8 7v15v15q-9 10 -7 29h-8h8h-8v15q-18 6 -15 22l-7 7l-16 8l-7 14v-7v7q-14 5 -23 23h-15h15h-15q-6 10 -15 7v7v-7v7l-15 8l-23 7h-15h15h-15h-38h-15h-30q-8 -15 -23 -7q-8 -16 -23 -8q-1 -6 -15 -7h8h-8q-9 -24 -30 -22l-8 -8 q-5 -13 -15 -14v-15v15v-15h-8h8h-8q-5 -14 -15 -15v-15v15v-15q-4 -2 -15 -14v-15v15v-22v7l-7 -7h7h-7v-30l-8 -7v-67zM88 193l7 -7l-7 7l7 -7v-36q14 -5 8 -14q6 -1 14 -15l-7 8l7 -8v-14q18 -6 15 -22h7h-7l7 -7v7v-7l15 -7q5 -10 14 -7v-8v8v-8q14 -4 15 -14h7h-7h7 q23 -7 37 -14h-7h7l22 -8h14h37q19 -4 37 8h14q11 8 29 7q6 18 22 14q10 24 37 29v14v-14v14h7h-7h7q5 14 15 15v14v-14l7 22l7 14v14q5 3 8 15v-7v7v21v-7l7 7h-7h7v29l-7 22v22v-8v8l-8 21l-7 22h-7h7h-7l-8 22v-8v8q-18 6 -14 21q-7 1 -15 15q-24 2 -29 21h-15h15h-15v8 v-8v8l-14 7h-15h15h-22h7l-7 7v-7v7h-29h-15h-15h-14h-37l-7 -7h-15q-5 -13 -14 -7q-6 -14 -15 -8q-6 -18 -22 -14q-1 -6 -15 -15q-4 -13 -14 -14q0 -19 -15 -22v-14v14v-14q-4 -3 -14 -14v-15v15l-8 -22v-22l-7 -7v-14v14v-51z" />
<glyph unicode=";" horiz-adv-x="384" d="M51 1043q11 -4 6 -23q11 -5 6 -12q5 0 12 -11l-6 6l6 -6v-12q14 -4 12 -17h6h-6l6 -6v6v-6q11 -4 12 -11l11 -6h-6q11 -1 18 -12l18 -6q14 -3 18 -11h18l12 -6h29v6v-6v6h12h24l6 6h12q5 10 12 5q4 11 12 6q7 19 24 18l5 11l12 6v11v-11v11l12 6v12v-12v12l12 6 q-1 19 12 34v29h6h-6h6v29l-6 6l6 -6l-6 6v12v11q-7 9 -6 23h-6h6h-6v12q-15 5 -12 17l-6 6l-12 6l-6 11v-5v5q-11 4 -17 18h-12h12h-12q-5 8 -12 6v5v-5v5l-12 6l-18 6h-12h12h-12h-30h-11h-24q-6 -12 -18 -6q-6 -12 -18 -6q-1 -5 -12 -5h6h-6q-7 -19 -24 -18l-5 -6 q-4 -10 -12 -11v-12v12v-12h-6h6h-6q-4 -11 -12 -11v-12v12v-12q-4 -2 -12 -11v-12v12v-18v6l-6 -6h6h-6v-23l-6 -6v-52zM74 192l7 -7l-7 7l7 -7v-26q13 -7 6 -20l7 -7q12 -4 13 -13l14 -7h13h-13h13h33q18 2 27 7v-100v7l-7 -7h7h-7v-27h-7h7h-7l-6 -13v-20q-4 -2 -7 -13v7 v-14v7q-2 -13 -7 -33v13v-33l7 -7l-7 7l7 -7l7 -46q12 -6 6 -14q13 -4 14 -13h33q4 12 13 13q16 20 27 27h-7h7q2 22 20 26l6 14v-7v7l7 13v-7v7q3 15 13 20l7 13v20l7 14v26h6h-6l6 7v-7v7v20v-7l7 7h-7h7v26v20v27v13v13v27v13v14v13v26v14v13v27v13q0 18 -7 26v14v13v13 v14v26q-13 7 -6 20q-9 10 -7 27q-12 5 -7 13q-5 1 -13 13l-27 7h7h-7q-5 -12 -13 -7q-5 -16 -20 -13q-5 -12 -13 -7l-7 -6q-5 -13 -13 -14l-20 -6q-5 -12 -13 -7q-1 -6 -14 -13l7 7l-13 -7h6h-6q-5 -12 -13 -7q-6 -12 -14 -6q-5 -13 -13 -7l-7 -7v-13v13v-13l-13 -7 q2 -22 -13 -40v-13v13v-53v7q-3 -13 -7 -33v13v-53z" />
<glyph unicode="&#x3c;" horiz-adv-x="1461" d="M93 387q18 -8 10 -32v11v-11q18 -9 10 -22q18 -8 10 -21h10h-10l10 -11v11v-11q19 -7 20 -22q27 -8 31 -32h20h-20h20v-11v11v-11l20 -11h20h-20h20q13 -21 30 -11v-11v11v-11h50l10 -11h21h-21h21h40h20l20 -10h20q13 -21 30 -11q8 -15 21 -11l10 -11l20 -11h20h-20 l30 -11l30 -10q27 0 40 -11q28 2 41 -11l20 -11h20h-20h20l30 -11l30 -11h20q8 -14 20 -10l21 -11l30 -11h20l20 -11h-10h20h-10h10l20 -11h20h-20h20l30 -11l31 -10q35 4 50 -11h30q8 -15 20 -11l20 -11h21l20 -11l30 -11h50h10h-10h10q13 -20 30 -10q15 13 41 10 q7 20 20 11q8 20 20 11q0 28 20 33v21v-21v21v44v10v-10v21v-11v11l-10 33q-18 8 -10 21q-25 9 -20 33q-19 7 -20 22h-20h20l-31 10l-20 22h10l-20 11l-20 11l-30 11h-40l-10 10q-28 -1 -41 11q-27 -1 -40 11q-27 -2 -40 11h-10h10h-10l-20 11h-20h20h-20l-31 11h-20 q-8 14 -20 10h-20v11v-11l-10 11h10h-10h-30h10l-10 11v-11v11h-40q-13 21 -31 11q-7 15 -20 11l-20 11l-20 10h-20h20h-20l-30 11h-20v11v-11l-10 11h10h-10l-21 11h-20h20h-20q8 22 20 22v10v-10v10l31 22h-10h10q6 20 20 22q8 28 30 32l10 22l30 11q8 28 30 32 q9 27 30 22q11 37 51 43q12 35 40 33v10v-10v10q18 11 20 22q14 8 40 22q7 20 21 21q7 20 20 11l10 11q6 20 30 22h-10h10q7 20 20 21q8 27 30 22l10 11q8 28 30 32l31 11l10 22l20 11h20q8 20 20 11l10 21h20q8 20 20 11q9 27 31 22q7 28 30 32v11v-11l10 22v22v-22v22v54 q-21 11 -10 32q-19 9 -10 22l-20 11l-10 32l-31 11l-10 22h-20h20h-20l-10 21q-33 -2 -60 22h-20h20h-20h-51q-10 -22 -30 -11q-8 -20 -20 -11q-8 -19 -20 -10q-8 -20 -20 -11v-11v11v-11l-30 -11q-8 -20 -21 -11q-7 -20 -20 -11q-8 -26 -30 -21q-8 -20 -20 -11 q-7 -20 -20 -22q-19 -11 -20 -21l-30 -11h10h-10q-7 -21 -21 -22q-8 -27 -30 -22l-10 -21l-30 -11h10h-10q-7 -20 -20 -22q-8 -27 -30 -21q-3 -11 -20 -22h10h-10q-9 -27 -31 -22l-10 -21l-30 -11h10h-10q-7 -21 -20 -22q-8 -27 -30 -22q-3 -10 -20 -21h10h-10 q-9 -27 -30 -22v-11v11v-11l-31 -32l-20 -11h10h-10q-6 -20 -30 -33q-8 -26 -30 -21q-7 -21 -20 -22q-8 -28 -30 -32v-11v11l-11 -11h11h-11q-6 -20 -20 -22q-13 -22 -30 -32h10h-10q-12 -35 -40 -33l-10 -21v10l-10 -21l-20 -11h10h-10q-14 -8 -41 -22q-7 -20 -20 -11 q-6 -20 -30 -32l-10 -22l-10 -32v-44z" />
<glyph unicode="=" horiz-adv-x="959" d="M43 384q7 -1 16 -15l15 -8h-8h8l16 -8h15h-15h15v8v-8v8q21 -4 39 8h8h-8h16h-8h16h-8h8q6 12 23 15l23 8h16q8 16 23 8q6 14 16 7q10 6 31 8h-8h8q6 12 23 16h23l16 8h16l23 7l-8 -7l16 7h-8h16h-8h8q21 2 31 8h23l23 8q22 2 31 8h16l23 8h-7h15h-8h8q21 2 31 7h16h15 q6 15 16 8l39 8h-8h16h-8h8l23 8v7v-7v7h16q6 15 15 8q6 14 16 8v8v-8v8q14 8 15 15l24 8l7 16v-8l8 8h-8h8q5 14 24 23v16v-16v16h7h-7h7q5 14 16 15v16v-16v16q11 6 8 15l7 8q4 18 16 23v16v-16v16v16v31q-20 6 -23 23h-16h16h-16h-39v-8v8v-8h-39q-9 -15 -31 -7l-23 -8 h-16l-23 -8q-21 -2 -31 -8h-16l-23 -8h8h-16h8h-8q-21 -2 -31 -7h-31q-6 -15 -16 -8l-23 -8l8 8l-16 -8h8h-16h8h-8q-21 -2 -31 -8q-21 -2 -31 -8h-15q-8 -16 -24 -7q-8 -16 -23 -8q-6 -14 -16 -8q-10 -6 -31 -15l8 7l-8 -7h-23q-8 -16 -24 -8q-6 -14 -15 -8l-23 -8 q-7 -14 -16 -8q-6 -14 -16 -7q-6 -15 -15 -8q-7 -19 -23 -16q-8 -27 -39 -31q-6 -14 -16 -15v-16v16v-16h-8h8h-8q-5 -15 -23 -23v-16v16v-16h-8h8l-16 -8v-15v15v-15h-7h7l-7 -8v8v-16v8v-8q-15 -10 -8 -31v8l-8 -8h8h-8v-39zM59 766q16 -8 7 -24q15 -6 8 -15q15 -6 16 -16 h15h-15h15h16h39q21 2 31 8l23 8l24 7h15q8 16 23 8q12 10 32 8q5 17 23 23h8h-8l8 8v-8v8h15q8 16 24 8l7 8l-7 -8l7 8h16v7v-7v7h16v8v-8v8h23h-8h8q9 15 31 8q9 15 31 8q10 15 31 8h16v7v-7v7h15h16h31q8 16 23 8q12 10 32 8l15 8h31l24 7h15q10 15 31 8q6 21 24 24v23h7 h-7h7v23l8 8v16v-16v16v15v39l-8 8q-2 21 -7 31q-6 11 -16 31h-16h16h-16v8v-8v8h-15h15h-15h-31q-10 -15 -31 -8q-6 -14 -16 -8q-21 -2 -31 -7h-31q-10 -15 -31 -8l-24 -8h-15h-31v-8v8v-8h-39v-7v7v-7l-24 -8l8 8l-8 -8h-38q-8 -16 -24 -8q-12 -23 -39 -16q-8 -16 -23 -7 q-6 -15 -16 -8q-5 -15 -23 -16h8h-8q-8 -19 -31 -15q-10 -15 -31 -8q-6 -14 -16 -8l-8 -8h-15v-7v7v-7h-31v-8v8v-8h-16h-15h-32l-7 -16l-16 -8q0 -25 -15 -31v-116z" />
<glyph unicode="&#x3e;" horiz-adv-x="1713" d="M93 1085v10v-10l10 -30q20 -8 11 -21q26 -8 21 -30q19 -7 21 -20h21h-21l31 -10l21 -21h-10l21 -10l20 -10l32 -10h42l10 -10q29 1 42 -11q28 2 42 -10q28 2 42 -10h10h-10h10l21 -10h21h-21h21l31 -10h21q8 -14 21 -10h21v-10v10l11 -10h-11h11h31h-10l10 -11v11v-11h42 q13 -19 31 -10q8 -14 21 -10l21 -10l21 -10h21h-21h21l31 -10h21v-10v10l11 -10h-11h11l21 -11h21h-21h21q-8 -21 -21 -20v-10v10v-10l-32 -20h11h-11q-7 -19 -21 -21q-8 -26 -31 -30l-11 -20l-31 -11q-8 -26 -31 -30q-9 -25 -32 -20q-10 -36 -52 -41q-13 -33 -42 -30v-11 v11v-11q-19 -10 -21 -20q-14 -7 -42 -20q-7 -19 -21 -20q-8 -19 -20 -11l-11 -10q-7 -19 -31 -20h10h-10q-7 -19 -21 -20q-9 -25 -32 -21l-10 -10q-8 -26 -31 -30l-32 -10l-10 -21l-21 -10h-21q-8 -18 -21 -10l-11 -20h-20q-9 -19 -21 -10q-9 -26 -32 -21q-8 -26 -31 -30 v-10v10l-11 -21v-20v20v-20v-51q22 -10 11 -30q19 -8 10 -20l21 -10l11 -31l31 -10l11 -20h20h-20h20l11 -21q35 3 63 -20h21h-21h21h52q11 21 31 10q8 19 21 10q8 19 21 10q8 19 21 11v10v-10v10l31 10q9 18 21 10q9 19 21 10q9 25 32 21q8 18 21 10q7 19 21 20 q19 10 20 20l32 10h-11h11q7 19 21 21q8 25 31 20l11 20l31 10h-10h10q7 20 21 21q9 25 31 20q3 10 21 20h-10h10q9 25 32 21l10 20l31 10h-10h10q7 19 21 20q9 26 32 21q3 10 21 20h-11h11q8 25 31 20v10v-10v10l31 31l21 10h-10h10q7 19 32 31q8 25 31 20q7 19 21 20 q8 27 31 31v10v-10l11 10h-11h11q7 19 21 20q13 20 31 31h-10h10q13 32 42 30l11 20v-10l10 20l21 11h-11h11q14 7 42 20q8 18 21 10q7 19 31 30l11 21l10 30v41q-19 8 -10 30v-10v10q-20 8 -11 21q-19 7 -10 20h-11h11l-11 10v-10v10q-19 7 -21 20q-27 8 -31 31h-21h21h-21 v10v-10v10l-21 10h-21h21h-21q-13 19 -31 10v10v-10v10h-53l-10 11h-21h21h-21h-42h-21l-21 10h-21q-13 19 -31 10q-8 14 -21 10l-10 10l-21 10h-21h21l-32 10l-31 11q-28 -1 -42 10q-29 -2 -42 10l-21 10h-21h21h-21l-31 10l-31 10h-21q-8 14 -21 10l-21 11l-32 10h-20 l-21 10h10h-21h11h-11l-21 10h-21h21h-21l-31 10l-31 10q-37 -3 -53 11h-31q-8 14 -21 10l-21 10h-21l-21 10l-31 10h-53h-10h10h-10q-13 19 -31 10q-16 -12 -42 -10q-8 -18 -21 -10q-8 -19 -21 -10q0 -27 -21 -31v-20v20v-20v-41v-10v10v-20z" />
<glyph unicode="?" horiz-adv-x="940" d="M196 1059v8v-8q2 -23 8 -33v-32q15 -7 16 -16l8 -24l8 -24q14 -7 8 -16l16 -8l8 -25l16 -16h-8l8 -8v8v-16v8v-8q16 -7 16 -24v8v-16v8v-8q16 -7 16 -16v-24v8v-8l8 -25l8 -24h8h-8l8 -8v8l9 -8h-9l9 -8v8l8 -8h-8h8q10 -15 32 0q5 15 16 16l8 16v17v-17v25v-8l8 8h-8h8 v40v40v16v41q-15 6 -8 16v16q-7 1 -16 16l8 -8l-8 16v-8v16v-8v8q-16 7 -16 16v16q-15 6 -8 16h-8h8h-8q-1 18 -16 24v17v-17v17q-15 6 -9 16q-14 6 -8 16q-20 8 -16 32l16 8h-8h8q7 20 25 16q8 28 40 32q15 29 48 24q8 17 24 9v8v-8v8h16q12 10 33 8l8 8h16q6 12 24 16h32 v8v-8v8h16h16h33h24h-8l8 8v-8v8h16h32q-6 -17 -16 -16v-16v16v-16q-11 -7 -8 -16l-8 -8q-11 -7 -8 -17h-8h8h-8q0 -21 -16 -24v-16v16v-16q-17 -7 -17 -24h-8h8h-8l-8 -24h-8h8h-8l-8 -24q-5 -18 -16 -16v-8v8v-8l-8 -25q-16 -7 -16 -24q-11 -6 -8 -16h-8h8h-8l-8 -24 l-8 -16q-11 -6 -8 -16q-11 -7 -8 -16q-11 -7 -8 -16l-8 -9q-6 -17 -17 -16l-8 -16l-8 -24l-8 -16l-8 -16q-11 -6 -8 -16l-16 -8q0 -31 -24 -41q-11 -32 -24 -48q-8 -25 -16 -32l-8 -24l-8 -24q4 -21 -8 -41v-16v16v-80q16 -9 8 -24q10 -12 8 -33h8h-8l8 -8v8v-8 q15 -5 24 -24h40q6 15 16 8l8 8q6 15 16 16l8 25l8 16v-8v16v-8v16v-8v8l9 16v16v-16v24v-8v8q-3 22 -9 32q12 7 9 16l8 8q5 18 16 17v8v-8v8q6 25 24 32v8v-8v8q8 25 16 32l8 16q11 6 8 16q11 7 8 16h8h-8h8l8 16v17v-17v17l16 8q1 26 16 32v8v-8v16v-8v8q11 6 8 16l9 8 q5 17 16 16l8 16l8 25h8h-8h8l8 24h8h-8h8l8 16q0 21 16 24q1 31 24 40l8 16l8 24q11 7 8 17l24 24l9 16v16v-16v16q11 6 8 16q11 6 8 16l8 8q8 25 16 40v-8q2 17 16 33q0 21 8 32v16v-16v16v40l8 8v16v41v16v32q-15 10 -8 32l-8 8q-6 11 -16 32h-16h16h-16q-7 12 -16 9h-17 h-40h-16h-32l-8 -9h-16h-16h-41h-16q-1 -7 -16 -8h8h-8h-32q-11 -6 -32 -16l8 8l-8 -8h-24q-9 -16 -25 -8v-8v8v-8h-24h8h-8q-9 -15 -32 -8q-8 -16 -24 -8q-6 -15 -16 -8l-24 -8q-7 -15 -16 -8l-8 -16l-17 -8q-6 -15 -16 -8q-2 -8 -16 -16h8h-8q-6 -20 -24 -16v-9v9l-8 -9h8 h-8q-5 -15 -16 -16q-6 -21 -24 -24v-16v16v-16q-5 -3 -8 -16v8l-8 -8h8h-8v-32l-8 -8q-3 -12 -8 -41v17v-41v8v-16v8v-8q-16 -10 -8 -24v-80zM260 237l8 -8l-8 8l8 -8l8 -56q20 -7 16 -25q7 -1 16 -16q15 -5 16 -16q21 1 25 -16h16h-16h16v-8v8v-8l24 -8h16h-16h16 q22 1 32 -8q12 10 32 8l8 8l-8 -8l8 8h16v8v-8l8 8h-8h8q6 15 25 24v16v-16v16v17v40q-15 6 -8 16q-15 6 -8 16h-9h9l-9 8v-8v8q-15 5 -24 24q-21 7 -24 24h-16h16h-16v8v-8v8h-16h16h-16v8v-8l-8 8h8h-16h8h-8q-10 16 -24 9h-16h-16h-33v-9v9l-8 -9h8h-8q-11 -6 -32 -16 v-16v16l-8 -24z" />
<glyph unicode="@" horiz-adv-x="2140" />
<glyph unicode="A" horiz-adv-x="1000" d="M-162 939l19 -18q52 -26 77 -61l10 -27q9 -9 34 -44l71 -88q141 -140 141 -248q0 -61 -44 -112q60 0 104 19q159 -220 176 -448q52 0 88 35l17 9q27 52 71 79q0 193 -88 333q42 15 79 15q54 0 97 -32q-2 -58 -2 -108q0 -98 8 -160q5 -19 24 -65l13 9q97 34 149 96v26 q-28 114 -28 211q0 22 1 44q27 35 54 52l61 88q-44 52 -105 69l9 27l8 71q7 107 12 166q0 61 12 108l3 15l26 145l8 48l15 71l5 30l7 30l20 71l16 61q25 122 60 201q17 27 22 57q1 5 1 10q0 24 -23 38l-35 -25q-262 -387 -674 -500q-115 -53 -169 -53l-80 -18l-37 -5 q-40 -6 -74 -6q-19 0 -36 2q-44 -132 -123 -218zM139 997l61 44q403 79 657 359q5 -18 5 -33t-5 -29l-34 -122q-10 -71 -27 -115q-8 -16 -8 -60q-27 -97 -27 -139q-26 -89 -26 -142l-8 -18q0 -70 -19 -122l-17 -19h-50h-46q-75 -11 -131 -11q-29 0 -53 3l-27 52l-26 36 q-44 79 -86 132q-20 43 -45 69l-53 62zM250 939q18 26 41 26q65 0 170 -200l-196 167zM597 826q-24 79 -24 140q0 110 78 162l13 22q23 -50 24 -104q-1 -105 -91 -220z" />
<glyph unicode="B" horiz-adv-x="1074" d="M-145 56l33 -16l75 -29l22 -6l75 -29l76 -29l64 -31l44 11l32 7q66 42 119 65l64 27l54 37l33 8q66 41 118 64l33 20l32 8l32 19l44 23l32 19l32 8q11 17 22 17l189 108q57 91 124 157l11 26l21 29l22 17q51 100 118 159q9 35 9 62q0 80 -78 92l-141 42q-78 29 -232 61 l183 140q-723 238 -1021 340q-135 46 -167 45q-9 0 -9 -3q0 -12 88 -64q124 -72 123 -107q0 -25 -60 -32q90 -33 140 -95v-354v-11q0 -65 11 -116q-12 -62 -12 -111q0 -11 1 -21v-424q-59 -43 -108 -49q10 39 10 71q0 90 -85 110q-153 -68 -173 -265zM-128 313 q281 115 281 422q0 17 -1 34l-32 4q-67 -260 -248 -413v-47zM454 278v47v47v200v36v141q176 49 332 49q133 0 251 -36l86 9q-2 -68 -11 -120q-28 -99 -65 -158l-43 -10l-43 -22l-43 -11l-43 -10q-16 -18 -33 -20l-43 -11l-32 -8q-39 -22 -76 -30q-39 -22 -75 -30 q-85 -52 -162 -63zM454 1173q11 3 20 3q30 0 30 -32q0 -25 -18 -69l44 57q20 48 97 48q48 0 118 -19l54 -10q-197 -102 -285 -101q-70 0 -70 65q0 24 10 58zM562 1152q-20 -55 -20 -68q0 -4 2 -4q7 0 40 54zM616 435q125 17 125 149q0 49 -17 113q-41 35 -86 35 q-11 0 -22 -2q-40 -83 -40 -157t40 -138zM799 704q-47 -89 -47 -142q0 -78 103 -78h9l43 69v130q-41 24 -81 24q-13 0 -27 -3z" />
<glyph unicode="C" horiz-adv-x="927" d="M-145 1043v-9q0 -38 8 -66q52 -9 89 -9q13 0 24 1l7 -22l91 -106v-53q9 -7 8 -15v-23q7 -69 7 -117v-11l-7 -113q-68 -54 -99 -113q-8 -42 -8 -78q0 -15 1 -28l53 -8h38h52h129h75l23 -7q43 -8 76 -8h30q13 1 25 1q41 0 73 -8h30h23h151q26 -3 50 -3q168 0 222 154 q4 25 4 48q0 168 -200 224q55 83 55 167q0 14 -2 29q-136 -52 -136 -177v-12l-68 -106q-1 -16 11 -16q18 0 64 39l-15 -60q56 -16 91 -46l-30 -7h-23h-61l-151 7l-22 8q-34 -1 -65 -1q-73 0 -124 8v31v22v31v22v61v30l-15 128q23 -18 42 -18q23 0 41 26q78 13 106 83l-8 68 q-55 -21 -83 -61q-8 59 -30 98q-20 10 -20 18q0 11 35 20l60 60l61 -37q15 -38 15 -69v-7l-8 -98q-1 -43 -7 -75l45 7l38 45l15 16l15 15l23 7l37 38q38 62 84 98v23q10 30 7 60v23l8 22v61v22v99q-91 0 -144 60l-53 15h-30q-28 -28 -53 -38q-52 -103 -121 -158l-15 -8 l-53 -7q-143 -46 -273 -46q-54 0 -105 8q-82 -77 -113 -159zM248 998q42 7 75 23h23q-24 -63 -24 -123q0 -11 1 -21q-54 67 -75 121z" />
<glyph unicode="D" horiz-adv-x="1398" d="M-129 1295q151 -311 510 -483v-210l-10 -64l-19 -201l-28 -9q-48 -2 -76 -9q-148 -17 -235 -46q-91 -106 -95 -228h47l19 9h29h122q10 11 19 9h28q28 10 57 10q9 0 19 -1h28h123l28 19l161 100q570 269 858 739q12 55 12 101q0 19 -2 36l-19 9q-178 -37 -345 -37 q-275 0 -523 101q1 19 1 36q0 75 -11 129q-71 -18 -104 -73q-285 117 -358 374l-57 18q-163 -143 -179 -329zM46 933q37 -35 56 -64l19 -19l19 -9l19 -18l9 -18q69 -41 113 -82l29 54q-150 91 -227 201zM565 440v27v28l9 63l9 201h29l19 -9l18 -9h29l19 -9h28l19 -9l94 -9 q78 -13 141 -13q30 0 57 3l-28 -18q-12 -14 -28 -18q-13 -15 -29 -18l-18 -19l-29 -18l-38 -9q-67 -56 -132 -73q-89 -67 -169 -91zM687 686q-11 -58 -11 -87t11 -29q12 0 38 34q20 -17 37 -17q42 0 57 108h-19h19h-19q-42 -47 -66 -82q-2 55 -47 73zM772 166h28l123 82 l28 27l19 19l19 18l57 36q47 61 94 92q1 13 -9 27q-13 -14 -29 -18q-117 -149 -283 -228zM1027 1133q94 -41 177 -41q115 0 210 78h-47q-88 -27 -171 -28q-68 0 -131 19z" />
<glyph unicode="E" horiz-adv-x="835" d="M-95 11l35 -15l53 8h45h35h44l27 7h26h27q66 0 115 8q57 -1 97 -8h53l35 8q41 8 77 8q11 0 21 -1l26 8q27 -1 53 -1q70 0 124 8q98 50 106 136l-18 30l-17 23q-29 32 -36 60l-17 15l-18 23l-80 106h-35q-60 -61 -80 -129l18 -15l89 -113h-27l-71 -7h-26h-71 q-38 -3 -72 -3q-64 0 -114 10l-44 30v23v23v22l-18 166q51 -11 94 -11q120 0 172 87l-18 22l-274 8l-18 30l-9 53q-14 24 -17 45q-33 46 -36 83q-27 33 -35 61l-9 22v23q-41 70 -53 128q260 -109 519 -109q81 0 162 11l-9 -38q-74 -138 -150 -211q-9 -36 -9 -60l53 7 q179 186 230 393h9h-9h9q-1 38 -9 60q-107 -15 -207 -15q-386 0 -660 219q-8 -9 -17 -8l-71 -105v-76l35 -166q37 -70 45 -128q33 -57 44 -106q64 -101 70 -196l18 -8v-22q47 -121 47 -228q0 -26 -3 -51q-16 1 -30 1q-190 0 -226 -145zM-2 303q-9 -47 -9 -79q0 -60 34 -60 q30 0 88 50q8 31 8 54q0 68 -65 75zM359 864q-50 -67 -50 -125q0 -70 71 -128l41 26q12 -1 22 -1q102 0 101 141q-71 -23 -103 -70q1 12 1 23q0 85 -73 134h-10h10h-10z" />
<glyph unicode="F" horiz-adv-x="980" d="M-222 1275l33 -52q84 -85 116 -157q61 -51 91 -97l17 -22l16 -15l33 -45q54 -42 75 -90q47 -42 66 -89q48 -57 66 -105q66 -76 83 -157l16 -15l58 -134v-30q17 -69 17 -124v-11l24 -52q160 95 160 265q0 130 -93 303q41 -8 74 -8q120 0 132 112q-111 19 -195 19 q-37 0 -69 -4l-9 23l-16 15l-8 22q-55 54 -75 112q-50 47 -66 97h25h25h107l33 8q32 19 66 22q75 35 133 45l57 15q55 40 100 60q-55 -135 -55 -188q0 -35 23 -35q26 0 81 43q3 277 232 464v8q0 38 -9 66h-33q-310 -276 -703 -276h-8l-16 7l-17 8l-16 7l-50 15l-16 15 l-50 15q-14 8 -16 15l-17 7l-17 8q-105 58 -165 112q-50 26 -74 60q-67 -10 -108 -53q-60 -89 -60 -180q0 -14 2 -29zM-73 932q104 -241 314 -351v22q-53 49 -74 97l-33 45q-61 63 -83 119l-16 8l-17 7q-47 36 -91 53zM241 1402q74 -92 182 -97q-77 78 -182 97zM514 962 l8 -98q62 -54 108 -54q92 0 124 211q-88 -18 -124 -82q-12 68 -66 97q-37 -41 -50 -74z" />
<glyph unicode="G" horiz-adv-x="871" d="M-83 1065l20 -55l14 -20q21 -41 28 -75l13 -20q21 -40 42 -89q19 -32 23 -56l15 -24l20 -51l13 -52l11 -43q18 -49 24 -90q34 -121 34 -233q0 -111 -34 -212h21q80 60 161 67l27 -7q38 -18 75 -33l101 -61q81 -74 169 -94q33 34 60 47l89 74q13 47 13 88l-5 106l-4 50 l-4 40l-7 20l-15 135q69 40 96 101q-7 35 -34 62l-88 -7l-34 -14q-74 -21 -115 -41l-121 -27q-60 -7 -107 -27q-29 -54 -56 -81l-13 20l-7 61q-13 34 -24 77q-3 45 -30 92l-25 92l-11 30l-13 29q-22 47 -31 78l-11 35q-18 55 -43 94l27 14l33 -1q19 0 33 1h28q46 4 73 5 l17 3q22 4 37 4q56 3 95 16l62 12q19 3 27 7q17 3 27 0l-19 -62q-8 -26 -16 -51l-7 -23l-12 -40l-13 -68l-10 -44q-5 -13 -11 -57q-9 -82 -20 -121l14 -40q114 67 175 161l26 135q9 113 21 149l6 21l8 32q9 21 21 60q5 29 23 73l37 97h-35q-27 -17 -54 -27l-40 -13l-32 -7 q-42 -14 -72 -16l-37 -4l-365 -14l-54 -6l-74 -21l-27 -13l-17 -23q-72 -65 -112 -125zM306 1019q-11 -59 -11 -110q0 -109 51 -185q25 75 25 137q0 95 -60 158h-5zM342 261q15 50 15 93q0 15 -1 29l33 13h42l54 -7h141q34 -67 34 -128q0 -33 -7 -53q-98 60 -195 60 q-55 0 -109 -20zM428 443zM474 777q33 116 33 203q0 33 -5 63l-5 11q-44 -109 -44 -186q0 -53 21 -91z" />
<glyph unicode="H" horiz-adv-x="910" d="M-100 1217q75 79 75 173q0 15 -2 31q-72 -98 -73 -204zM-85 1049q30 -13 60 -13q62 0 122 57l7 -22l8 -14l14 -22l80 -183q-4 -15 -14 -21q-114 -5 -114 -85q0 -44 34 -112l7 -15l146 -15l7 -21q17 -59 22 -103v-58q-22 4 -42 3q-118 0 -133 -134q119 -84 213 -84 q76 0 137 55q105 105 105 241q0 55 -17 116l51 15q11 -8 14 -22v-37l-7 -22v-73q-10 -52 -10 -95q0 -23 3 -43l22 -22q113 21 182 95l15 182l7 37l7 51l8 22q12 38 21 58l15 44l7 43l8 22l7 22l14 22v22l8 22l7 22l7 22q41 97 51 167q-198 57 -284 227q-135 -56 -197 -168 q-7 -37 -7 -66v-7q96 -110 218 -139v-22q-4 -118 -92 -118q-11 0 -24 2h-95l-22 102l-7 29q-39 65 -51 124q-9 11 -8 22q-46 76 -65 131l-30 51q-60 124 -80 212q-37 7 -65 7q-8 -9 -15 -7q-7 -9 -15 -8q-7 -8 -14 -7l-110 -87l-43 -95l-37 -161q-36 -79 -36 -146zM630 1020 q-24 -40 -24 -60q0 -22 28 -22q8 0 18 2q4 -30 13 -30q15 0 45 81q-36 -2 -51 -29q0 42 -29 58zM849 510q102 121 102 261v8q29 79 29 139q-130 -196 -131 -408z" />
<glyph unicode="I" horiz-adv-x="334" d="M-7 353v103l38 164q13 65 19 88l16 79l3 27l10 44l3 20q9 37 12 77q6 31 13 94q6 11 20 61l38 -3l48 -55q66 -54 104 -97q5 -27 5 -55q0 -29 -5 -57v-30l-3 -23l-4 -64q-11 -120 -17 -159l-4 -59l-10 -52l-7 -40l-3 -27l-3 -51l-25 -113l-48 -55q-134 86 -200 183z M87 1308q-34 92 -34 166q0 179 199 254q164 -236 164 -412q0 -113 -68 -202l-8 21q-225 42 -253 173z" />
<glyph unicode="J" horiz-adv-x="920" d="M-63 512q250 185 351 446q-2 36 -15 58l-22 -14q-56 -72 -109 -110l-37 -37q2 -17 2 -35q0 -168 -170 -308zM-26 212q-25 -60 -25 -107q0 -53 32 -90l168 -15q7 9 15 7h22l14 8l139 7l37 7h29l37 8h29h22h29l44 7h44h73l117 14q123 73 190 183l15 73q-25 53 -30 95 q-121 301 -121 595q0 91 12 181l7 29l59 73l73 168q2 74 -63 74q-8 0 -18 -1q-55 -34 -95 -51q-26 -39 -58 -59q-28 -48 -52 -73l-29 -51l-7 -14l-44 -81l-44 -66l-7 -36l-15 -44l-7 -59l-22 -95v-117l7 -22v-58q15 -70 15 -117l7 -59q8 -11 8 -21q26 -71 29 -125l14 -44 l-95 -7q-44 -8 -81 -8q-11 0 -21 1q-11 -9 -22 -8h-29l-59 -7q-56 -20 -109 -22q69 140 69 245q0 72 -33 128q-276 -51 -276 -353q0 -44 6 -93zM339 578q-43 -73 -43 -122q0 -92 146 -105q109 56 109 165v10q-19 3 -37 3q-70 0 -116 -54q-4 74 -59 103zM873 965 q93 64 93 161q0 21 -5 44l7 15q12 38 22 58l22 88h-22q-27 -39 -58 -59q-19 -99 -52 -161v-29z" />
<glyph unicode="K" horiz-adv-x="1229" d="M-113 636q45 -30 105 -30q53 0 116 23l36 -63l35 -105l54 -117l46 -122q10 -27 30 -79l22 -40q49 -92 91 -135q171 38 276 106l-44 92q-31 69 -54 123q-49 73 -87 169q-33 79 -79 250l83 33q86 32 262 59q103 38 183 38q-70 -304 -70 -495q0 -312 188 -312q56 0 131 29 q33 63 47 112q-19 49 -19 76q0 8 2 14l-7 46q-15 121 -15 235q0 277 95 516l-61 18h-50l-48 -18l-57 -10l-274 -49l-45 -14l-204 -49q-65 -11 -175 -40q27 40 72 103l246 250l39 54l44 40l171 196l-10 51h-93q-12 -15 -50 -45q-25 -18 -52 -65q-63 -79 -124 -137l-80 -74 l-16 -18l-54 -56q-89 -74 -146 -140l-21 72q-57 180 -57 396q0 88 10 191l-76 -11q-118 -113 -243 -175v-172q12 -125 32 -184l6 -67q42 -180 60 -288q-154 -81 -171 -182zM958 1184q123 77 123 158q0 55 -56 112v-22q-94 -64 -94 -150q0 -46 27 -98z" />
<glyph unicode="L" horiz-adv-x="1010" d="M-80 110l39 -32h47h86q20 1 38 1q68 0 119 -9h47q74 -13 125 -15h39l31 -8h39l32 -8h31l16 -8l125 -8l31 -7h24l54 -8l173 -8q114 67 164 164v55q-40 19 -70 24q-152 184 -180 375l-24 40q-157 -35 -211 -173q-29 24 -56 24q-46 0 -85 -71q-4 73 -31 126q-82 -16 -82 -88 q0 -52 42 -132l32 8q16 21 23 39q22 -4 42 -4q65 0 115 44l8 -24q9 -78 39 -133h-39l-63 8h-31l-24 8h-39q-91 15 -152 15h-20h-12q-57 0 -57 26q0 9 6 21l16 8q16 53 39 86l94 204q14 47 31 78v23l8 24l8 16l16 70q9 44 23 78q0 38 8 63q3 74 16 125v24v31q8 37 8 68 q0 9 -1 18v78v24v23v24v23v24v94l-7 47q-39 25 -71 31q-178 -73 -266 -227v-23q-18 -70 -18 -128q0 -19 2 -37q8 -83 8 -163q0 -467 -266 -800q-38 -81 -39 -148zM139 853q-1 -22 -1 -43q0 -76 9 -129l8 16l8 15v32q17 88 17 153q0 23 -2 42q11 60 11 117q0 75 -19 142 l-7 -24l-8 -23v-94l-8 -24v-86l-8 -15v-79zM585 1151q-1 -22 -1 -43q0 -76 9 -130q24 60 24 126v62l7 126v31v23v157l-23 39v-31q-9 -33 -9 -78q0 -15 1 -32q0 -51 -8 -86v-164zM671 556q177 105 177 275q0 29 -5 61q-54 -45 -78 -94q-2 -148 -94 -242z" />
<glyph unicode="M" horiz-adv-x="1540" d="M-140 1080q27 -138 105 -225l30 -90q-7 1 -13 1q-68 0 -68 -62q0 -19 6 -44q141 -292 208 -292q32 0 47 67q-129 129 -165 270l-15 60q72 -76 90 -150l30 -30l30 -45l15 -45l30 -45q51 -71 75 -120l165 -330q85 3 150 45q125 104 135 240l-30 30l-15 30l-30 90l-30 30 l-15 45l-15 30q-94 152 -135 255l240 -60l45 -15l60 -45q21 -7 44 -7q151 0 331 322v-105l-15 -60v-495q-18 -59 -18 -124q0 -27 3 -56l90 -15q340 323 340 475q0 76 -85 110l-135 -150v105l15 330v150v45v120l-15 240h-75l-75 -75l-90 -120l-30 -30l-135 -240 q-449 58 -449 304q0 119 104 281q-19 52 -60 60q-15 -17 -30 -15l-90 -60q-15 -17 -30 -15q-179 -158 -270 -270l-30 -15l-30 -45l-30 -15l-30 -45l-15 -30q-80 -86 -120 -150zM790 1260q61 -32 110 -32q134 0 175 242l-60 15l-105 -135q-16 99 -90 120q-31 -97 -31 -177 q0 -17 1 -33zM1300 150l90 30q15 26 30 30l210 225q-13 28 -30 30l-45 -30l-15 -30l-30 -30l-30 -30q-119 -104 -180 -195zM1390 1335q-13 -96 -13 -183q0 -128 28 -237q32 105 32 201q0 116 -47 219z" />
<glyph unicode="N" horiz-adv-x="970" d="M-46 948q15 -20 14 -41l27 -27l69 -206q15 -21 13 -41q36 -54 41 -110q48 -101 55 -164q88 -218 96 -398q178 80 178 264q0 49 -13 106l109 -123q58 -131 130 -131q55 0 117 76q32 104 41 178v41v165l-14 82v151l14 41v274l28 110l27 96l27 82q117 180 137 343h-13h13 h-13h-41q-316 -435 -343 -905l-27 55q-56 -19 -69 -69q-35 12 -66 12.5t-57 -12.5l-28 28l-27 41l-28 55q-121 113 -178 233l-55 68q-67 -30 -109 -68q-51 -109 -55 -206zM-32 647q34 -201 81 -201q26 0 56 63q-37 144 -96 179zM530 743q36 -38 41 -83q22 11 37 11 q38 0 39 -64q0 -29 -8 -70q-128 107 -128 167q0 23 19 39zM872 1044q210 219 247 494l-27 13l-14 -41l-69 -82l-13 -55l-28 -41z" />
<glyph unicode="O" horiz-adv-x="935" d="M127 729q-28 -119 -28 -222q0 -309 255 -461q94 -42 182 -42q103 0 196 58q217 83 315 408q-1 18 -1 36q0 51 7 90l-6 55v141q-19 38 -19 71q-20 34 -25 70l-19 24l-13 31l-19 16l-12 24l-7 15l-12 24q-61 82 -88 141l-70 47q5 31 5 58q0 144 -137 162 q-383 -276 -504 -746zM304 415q46 447 302 699q236 -126 236 -420q0 -33 -3 -67q-47 -199 -158 -314q-123 -82 -207 -81q-108 0 -151 136zM398 564q4 -83 19 -133l19 -24q69 43 69 115q0 61 -50 144h-7h7h-7q-40 -47 -50 -102zM518 423q67 43 67 100q0 23 -11 49 q-55 -65 -56 -149z" />
<glyph unicode="P" horiz-adv-x="960" d="M-106 1511l8 -23l15 -7l8 -24q23 -10 38 -23h16h-16h16q6 -10 15 -7q6 -11 15 -8q18 -4 24 -15l15 -8h23q6 -11 15 -8q6 -10 24 -8h-8l8 -7v7v-7q24 -1 30 -16h16h-16h16q-3 -7 -8 -30v15v-69h-8h8h-8v-16v16v-147q-10 -6 -7 -15v-38q0 -22 -8 -31v15v39v30v16v15v31 l-8 8l8 -8l-8 8v38l-15 -7v-24v8l-8 -8h8h-8v-223v8v-15v7v-7l8 -24q-2 -35 15 -15q0 22 8 31v-116l-23 -7q-21 -2 -31 -8l-23 -8l-8 -15h-15q-2 -8 -16 -15h8h-8q-5 -15 -15 -16v-15v15v-15l-15 -8h7h-7l-8 -15l-8 -23v-31q14 -6 8 -16q14 -5 15 -15h16h-16h16h38h16h23h-8 l15 8l-7 -8l7 8h39v-62q4 -20 -8 -38v-162v8v-31v8v-8q15 -9 8 -31q14 -5 15 -15l16 -8h30l8 8l-8 -8l16 8h-8h16h-8h8l23 7q6 19 23 16l7 7q6 20 24 24v7v-7l7 15q6 16 16 15l7 16v23h8h-8h8v15v-15v15v39v31v23v15v15v23v16v38v16v31h8h-8h8q6 14 15 7q6 14 15 8l8 8l16 7 l23 8l23 8l-8 -8l15 8h-7h15h-8h8l39 7h-8h8q10 6 30 8h-7h7q6 15 24 23l-8 -7l8 7h15v8v-8v8l23 8q6 14 15 7q6 14 16 8q6 14 15 8l8 7q6 14 15 8q6 14 16 8q6 14 15 7q6 15 15 8q6 14 16 8l8 8l23 7q6 14 15 8q6 19 23 15v8v-8v8h15q7 19 24 15l7 8q7 15 16 16l23 7 q9 25 31 23q9 25 30 23q18 24 31 39q18 15 31 23h-8h8q5 14 15 15l8 16v15v-15v15v39v7v-7v7q-14 6 -8 16q-14 6 -7 15l-16 8l-7 15v-7v7q-15 5 -16 16h-8h8q-15 2 -31 15q-20 0 -30 8h-16h16h-16h-15h-23h7h-7q-27 -3 -39 7l-23 8h-23q-6 11 -15 8l-8 8h-15v7v-7l-8 7h8h-8 l-16 8h-15h15l-23 8h-15h15h-15l-15 7h7l-15 8h-16h16h-23h7h-7q-10 15 -23 8l-8 7l-15 8h-16h16l-23 8l-16 7l-31 8h8h-8h-15v8v-8v8l-15 8h-16h16h-16v7v-7v7q-21 -1 -31 8h-7h7h-7q-6 11 -16 8l-7 7q-21 -1 -31 16l-16 7h-15h15h-15q-24 8 -38 16h7h-7q-10 14 -24 8v7v-7 v7q-12 2 -30 16l-23 7l-24 8h-15v8v-8v8l-15 7l-16 8q-30 -2 -38 16h-8h8h-8h-15v7v-7v7l-16 8h-15h15h-15v8v-8v8h-23l-8 7l-23 8h-15h-16h-31q-6 -14 -15 -8l-8 -7q-5 -15 -15 -16v-15v15v-54zM325 942v7v-7v7l8 16v15v-15v15v23v39v8v-8v8q14 9 7 23v15v31v15v39 q-1 21 8 30v16v15v39l15 -8h16h-16h16q6 -11 15 -8q6 -10 23 -7h-7l7 -8v8v-8h16h-16h16v-8v8v-8l15 -7h16h-16h16l23 -8h-8h8l23 -8h-8l15 -8l24 -7l23 -8h15q6 -11 14.5 -10.5t23.5 -12.5h16h-16h24h-8l15 -8l23 -7l16 -8h15h-15h15q-6 -16 -15 -16v-7v7v-7l-23 -8v-8v8 v-8l-23 -7q-6 -14 -16 -8q-6 -14 -15 -8q-6 -14 -16 -7q-6 -14 -15 -8q-6 -19 -23 -15q-6 -15 -15 -8l-8 -8l-23 -8q-6 -14 -16 -7q-6 -15 -15 -16l-15 -7h-16l-8 -16v8l-7 -8h7h-7l-23 -7l-8 -16v8l-8 -8h8h-15h7h-7q-7 -15 -24 -15h8h-15h7h-7q-20 -9 -31 0zM363 1073 q10 -12 8 -31q15 -5 16 -16h30q5 15 16 16v23l7 8v15v15v16v31h-7h7l-7 7v-7v7q-6 11 -16 31h-30q-6 -14 -16 -15v-16v16l-8 -23v-77zM448 1050l8 -24h8h-8h15h-7h7q11 6 31 16v15v-15l8 23l15 8v15v-15v15h8h-8l8 8v-8v8l8 15v15v-15l7 23q1 31 -25 31h-6v-8v8l-7 -8h7h-7 q-5 -14 -16 -15q-5 -15 -15 -16v-15v15v-15h-8h8l-8 -8v8q-2 -15 -15 -31q0 -20 -8 -30zM694 819l8 7l-8 -7l8 7h23v8v-8v8l16 8h-8h8q6 14 15 15h23q6 14 15 8q6 14 16 7q6 20 23 16l8 8q6 19 23 15l7 8q6 20 24 23l7 15v16v-16v16h-31q-9 -25 -30 -24q-10 -24 -31 -23 q-15 -27 -46 -23q-6 -14 -16 -7q-1 -7 -15 -8h8h-8q-5 -15 -15 -16q-6 -20 -24 -23v-30z" />
<glyph unicode="Q" horiz-adv-x="1081" d="M1 942q-20 -93 -20 -122q0 -13 4 -13q12 0 58 110q-41 -126 -41 -236q0 -250 215 -410q167 -115 343 -115q188 0 386 131q82 -92 157 -92q52 0 100 42q-11 125 -108 199q40 99 83 158q13 85 13 163q0 419 -361 657q10 39 10 70q0 132 -176 146q-389 -230 -563 -589 q-19 -37 -27 -37q-6 0 -6 23v6q-45 -45 -67 -91zM283 536q-2 31 -2 61q0 380 350 668q147 -32 207 -157q97 -126 97 -259q0 -109 -64 -222q-65 44 -124 44q-47 0 -91 -27v-9q0 -99 66 -149q-32 -39 -74 -41q-108 -58 -187 -58q-126 0 -178 149zM383 652q20 -50 41 -83h41 q43 86 43 143q0 80 -84 106q-42 -76 -42 -146q0 -10 1 -20zM523 586q91 39 91 127v13h-24q-57 -64 -67 -140zM946 1514q-5 -29 -5 -56q0 -113 96 -184q4 21 4 42q0 100 -95 198zM1170 378q34 28 34 53t-34 47q-10 -29 -10 -54t10 -46z" />
<glyph unicode="R" horiz-adv-x="1220" d="M-80 1343l34 -50q90 -126 184 -190v-166q-1 -22 -1 -43q0 -82 10 -139q-110 -86 -135 -208q24 -19 54 -19q36 0 81 28v-556h67l17 25q54 67 76 116l8 41v92v58q-11 73 -11 128q0 29 3 54l25 8q43 17 75 17q37 17 67 17h9q59 24 105 24h4l17 9h25q146 35 258 35 q28 0 53 -2q50 12 94 12q25 0 49 -4q-8 -13 -17 -16l-8 -25l-84 -108q-128 -117 -128 -245q0 -14 2 -29q43 13 75 33l9 25l16 17l17 16l9 17l33 42l17 16q51 63 76 108l67 83l8 16l9 17l17 25l8 25l17 16q22 77 50 125q1 47 -17 83h-33h-51h-25q-35 -11 -67 -11q-13 0 -25 2 h-25l-169 -8q212 142 212 315q0 12 -1 25h-34l-17 8q-25 -1 -48 -1q-75 0 -128 10h-59q-85 0 -143 16h-25l-101 17l-25 8l-25 8h-26l-25 9l-151 58q-87 67 -126 132q-41 41 -59 75l-8 50v49l-34 17q-112 -88 -126 -216v-91zM113 174q17 97 17 180t-17 152q-21 -91 -21 -174 t21 -158zM138 1650q-17 -42 -17 -82q0 -84 76 -158l42 8l-8 33q-70 99 -93 199zM307 829v66v25v108q66 -4 117 -25l25 -8l118 -8l109 -17q-41 -23 -75 -33l-26 -8q-64 -25 -109 -34q-8 -9 -17 -8l-58 -25q-45 -25 -84 -33zM323 929q25 -44 39 -44q20 0 20 83v10l-42 17z M391 887q85 23 85 45q0 15 -35 30q-37 -33 -50 -75zM1063 357l50 33l17 16l50 42l9 16l17 9q8 14 16 16l9 17q74 61 109 124l-17 33q-11 -13 -25 -16l-25 -33l-17 -17l-17 -17l-17 -16l-16 -17l-17 -8q-9 -15 -17 -17q-54 -64 -92 -99z" />
<glyph unicode="S" horiz-adv-x="1082" d="M-72 368q183 -369 497 -369q209 0 475 163q243 106 253 357l-31 36l-53 35q-32 15 -54 45q-73 34 -115 81q-58 22 -91 53l-16 9l-53 27q-106 53 -169 116l-15 9q-102 55 -160 116h30h30h39q11 10 23 9h22l24 9h23l23 9h23l15 9l138 17q-69 -129 -92 -231l38 -45 q58 11 100 36q23 36 46 53l15 27l7 17l8 28q48 78 70 143q26 43 37 71l8 18l15 18l31 62l46 89v54h-8h8h-8q-46 -46 -92 -62l-61 -19l-99 -26h-31l-130 -27h-23l-153 -9l-23 -9h-107h-23h-39h-22h-31h-23h-154q-84 -24 -137 -81q-31 -63 -31 -127v-15l24 -27l22 -9l23 -17 l15 -19q68 -52 108 -98l15 -9q13 -8 15 -17q88 -49 138 -99l30 -18l93 -62l107 -80q45 -18 76 -45l31 -9l30 -18l23 -18l24 -8l191 -135q-154 -117 -325 -117q-17 0 -35 1h-4q-282 0 -394 277v161q-33 17 -63 17q-36 0 -67 -26q-53 -71 -77 -125v-196zM265 742l23 -44l16 -9 l38 -45q12 -9 15 -18q13 -8 15 -17l24 -10l15 -9l7 -17l192 -116l-31 54q-43 31 -69 62q-45 22 -77 53l-15 9q-85 76 -153 107zM571 1055q-6 -26 -6 -46q0 -70 69 -70h7q41 33 41 78q0 14 -4 29q-40 -10 -68 -35q-10 37 -39 44zM863 805q15 10 22 27l15 27l24 35l15 27 q32 90 84 143l15 27l8 27l16 17l7 18l16 18l76 125l-8 53l-7 -17q-36 -53 -61 -81q-19 -52 -39 -80l-15 -8l-31 -55l-8 -17l-14 -9q-86 -157 -115 -277z" />
<glyph unicode="T" horiz-adv-x="900" d="M-100 776q1 -80 16 -135l24 -16l16 -16l31 -47l16 -16l8 -24q14 -8 16 -16l16 -16l16 -23l8 -16l7 -16l80 -119l47 24q7 41 7 80q0 150 -102 261q64 27 111 39l8 -39v-317l8 -32v-357q-12 -39 -12 -73q0 -19 4 -38q21 -4 41 -4q76 0 126 68q14 48 31 79l8 47v103v32v143 v87l-8 79v24v40v24v31v24v159l24 8l32 8l39 7l135 48l24 8h24q74 30 127 40v-24q-10 -65 -10 -117q0 -22 2 -42q27 -63 50 -63q61 0 100 428q-18 50 -47 79l-56 -8l-31 -16l-48 -7l-32 -16l-31 -8l-32 -8l-24 -8l-24 -8l-63 -24h-24q-28 -13 -55 -16q-44 -23 -88 -31v31v24 v56v23v24q1 16 1 31q0 55 -9 96l-55 16q-148 -90 -148 -262q0 -52 13 -111l-32 -8l-23 -8q-31 -20 -64 -23q-78 -55 -158 -72zM-60 483q9 -8 8 -16l8 -16l7 -16l8 -16l56 -87q55 -100 127 -159v24q8 27 8 57v7l-64 71l-142 230q-15 -47 -16 -79zM447 221l8 -48l16 8v32l8 32 v134v24v95l-24 32l-8 -47v-262zM455 609l32 -63h39q36 76 36 127q0 74 -75 95q-33 -70 -33 -135q0 -12 1 -24zM574 641q10 -44 32 -44t55 44q7 14 7 25q0 23 -31 31q-38 -29 -63 -56zM590 -342l47 -8q219 116 440 116q137 0 274 -45q117 72 117 117q0 78 -341 78 q-77 0 -172 -4q-328 -81 -365 -254zM955 697l15 15v24q8 25 8 53v11q10 30 8 63l16 87q19 53 19 100q0 18 -3 35q-66 -169 -66 -325q0 -32 3 -63z" />
<glyph unicode="U" horiz-adv-x="1000" d="M-140 385l38 22l7 30l15 16l8 15l7 30l46 128l15 30q34 120 68 189l-15 22l-16 -22l-15 -38l-45 -83l-7 -53l-8 -22q-26 -60 -38 -106l-7 -23l-8 -22l-7 -15q-28 -55 -38 -98zM-125 219q-2 -15 -2 -29q0 -54 25 -92h37h38h30h23h98h128h38h30h38h30h30h23l15 -7l151 -8 l30 -8l22 -7l53 -15l15 -8l15 -7q81 -13 136 -38l68 8q105 71 158 165v31v30l-15 128l-7 23q-44 135 -53 226v45q-13 43 -15 76v37l-8 15l-7 68v31v22v23v30l-8 23v22l-7 121l-61 15q-117 -66 -173 -166v-136q7 -84 7 -146v-27q9 -20 8 -61q12 -30 7 -60l8 -15l23 -204h-38 h-45l-15 8l-129 7h-105h-23h-37h-23h-30h-23h-151q-36 3 -60 16l38 113l15 37l37 121l8 15l30 91l8 22l37 83l8 38q30 58 45 106l38 98l15 22l8 23l15 30l7 15l15 45l15 15q23 73 53 121l15 45q3 12 3 23q0 52 -63 53q-84 -48 -128 -91q-28 -55 -53 -90l-8 -15 q-11 -39 -22 -61l-8 -15l-7 -15q-22 -56 -46 -90l-15 -38l-15 -38l-15 -45l-15 -30l-15 -45l-23 -46l-15 -37l-7 -31l-23 -37l-7 -38l-38 -98l-38 -106l-15 -37l-8 -31l-7 -22l-8 -23l-7 -22l-8 -15q-22 -87 -45 -136zM411 483q73 56 74 114q0 55 -67 112q-49 -60 -49 -119 q0 -54 42 -107zM463 475q12 -70 54 -70q48 0 135 93q52 59 52 94q0 42 -75 49q-111 -67 -166 -166zM1052 724l7 -15l8 -121l7 -22l8 -91q12 -23 15 -45h22l23 38l-23 75v23l-7 53v30q-15 65 -15 118v17l-23 8l-22 -38v-30z" />
<glyph unicode="V" horiz-adv-x="1140" d="M-85 957q11 -13 9 -36q16 -7 9 -18q17 -6 18 -26v9v-9q16 -6 18 -18q17 -8 17 -18q7 -12 18 -36q17 -6 18 -18l9 -17q29 -13 36 -45q23 -7 26 -27v-9v9l9 -9h-9h9q9 -16 18 -18l9 -18v9v-9q17 -7 18 -26v9l9 -9h-9h9q9 -16 18 -18v-18l18 -9q17 -20 26 -36v9v-9l18 -17 h-9l9 -9v9l9 -9h-9h9l18 -27v9v-18v9v-9q17 -6 18 -18l18 -9l9 -27l17 -9h-8l8 -9v9l9 -9h-9h9q9 -16 18 -17l9 -27q23 -7 27 -27q22 -7 18 -27h9h-9h9q9 -16 18 -18q8 -16 17 -17l9 -27l18 -9h-9l9 -9v9v-9q17 -6 27 -27q23 -7 27 -27h9h-9l9 -9v9v-9q16 -5 26 -26h18h-18 h18v-9v9v-9h18h-18h18q3 -6 18 -9h-9h9l18 -9h-9h9q31 3 44 -9l9 9h45v9v-9v9h18v9v-9l9 9h-9l18 9l9 18v-9v17v-8v8q16 12 9 27h8h-8h8v18v-18v18v27v27l9 26v18v18v45h9h-9h9v35l9 18v36h9h-9l9 9v-9v9v27v-9l9 9h-9h9v35l9 18v27v-9v18v-9v9q17 11 9 27v18h9h-9h9v35 q17 12 9 27q5 3 9 18v-9v18v-9v9q17 11 9 27q16 11 9 26q16 12 8 27q17 12 9 27q6 3 9 18v-9l9 18l9 18l9 26l9 27q-2 25 9 36v18l9 18v17h9h-9l9 9v-9v18v-9v9q17 12 9 27h9h-9h9l9 18v18v-18v18l17 9v18v-18v18q19 7 18 26h9h-9h9q6 17 18 18l9 27h9h-9q12 9 27 27 q10 25 26 35l9 27q13 7 9 18l18 9q1 29 18 36v18v-18v18v17v36q-16 7 -9 18q-16 7 -9 18q-22 7 -18 27q-16 6 -18 17h-17h17l-26 9l-9 18h-18h18h-18q-7 13 -27 9h9l-18 9l-27 9h-44q-11 -17 -36 -9q-7 -22 -27 -18l-9 -27l-17 -8q-3 -30 -27 -36q0 -23 -18 -27v-9v9 q-2 -16 -18 -27q0 -23 -18 -27l-9 -26v9v-9q-18 -8 -17 -27l-27 -27q-6 -17 -18 -18q0 -23 -18 -26v-9v9q-3 -18 -9 -45v18v-18q-17 -12 -9 -27l-9 -27q-12 -7 -9 -26v8l-9 -17q-2 -15 -8 -45q-6 -3 -9 -18v9l-9 -18v-18v18v-27v9v-9q-17 -11 -9 -26q-17 -12 -9 -27h-9h9h-9 l-9 -27v-27q-17 -11 -9 -26l-9 -9v-18h-9h9l-9 -9v9q-3 -18 -9 -45v18l-9 -36l-9 -35l-8 -36v-27v9v-18v9v-9q-17 -11 -9 -44q-6 -4 -9 -18v9v-36v9l-9 -9h9h-9v-36q-28 2 -27 27h-9h9h-9l-18 27v-9v9q-17 6 -18 27v-9v9q-16 6 -18 17h-8h8h-8l-18 27v-9v18v-9v9 q-17 6 -18 18q-17 6 -18 18q-17 7 -18 18l-9 18q-29 12 -35 44q-30 12 -36 45q-29 11 -27 35q-22 8 -18 27q-29 11 -27 36q-28 11 -26 36q-23 7 -27 26q-30 3 -36 27h-9h9h-18h9h-9q-11 17 -26 9v9v-9v9h-27v9v-9v9h-18h18h-18h-45q-9 -18 -26 -9q-7 -16 -18 -9l-9 -9 q0 -23 -18 -27v-17v17v-62zM183 448q17 -7 18 -36h8h-8l8 -8v8v-8q17 -6 27 -27q23 -7 27 -27h27q6 17 18 18l9 18l-9 9l9 -9l-9 18v-9v17v-8l-9 8h9l-9 9v-9l-9 9h9h-9q-9 16 -18 18l-9 18v-9v9q-16 7 -9 18q-16 7 -9 18q-16 7 -9 18l-9 9h-18h18h-18v-9v9l-8 -9h8h-8 q-6 -17 -18 -18v-45zM227 975l9 -9l-9 9l9 -9v-27l9 -9l9 -27h9h-9h9l18 -26v9v-9q17 -6 27 -27q54 7 53 53l-18 9l-9 27v-9l-9 9h9l-9 9v-9l-8 9h8h-8q-9 16 -18 18l-9 18q2 33 -27 35q-7 -16 -18 -8q0 -29 -18 -36zM415 761v9v-9q2 -25 9 -36h26q6 17 18 18v44 q-2 25 -9 36h-18h18h-18q-6 -16 -17 -9v-9v9l-9 -27v9v-18v9v-17v8v-17zM486 761q16 -7 9 -18l9 -9h27q7 23 27 27v9v-9v9l8 17v-9v18v-9v9v18v36q-16 7 -8 18l-9 9h-27q-1 -8 -18 -18v-18v18v-18h-9h9q-12 -9 -18 -36v18v-62zM959 868l27 9q0 23 18 26v9v-9l9 18 q10 25 26 36l9 27l9 18l9 17v18q12 7 9 18q12 7 11.5 16t15.5 20l9 27q6 19 18 17q0 29 17 36q-1 25 9 36h-26l-9 -18l-27 -18v-18v18l-9 -27q-12 -7 -9 -17l-18 -9q0 -29 -18 -36l-9 -27h-8h8h-8l-9 -27v9l-9 -18v-17v17v-26v9v-9q-17 -12 -9 -27l-9 -9q1 -24 -18 -36v-18 v18v-27v9v-9q-12 -7 -12 -17q0 -4 3 -9z" />
<glyph unicode="W" horiz-adv-x="1340" d="M-100 639q22 -13 25 -25l87 -238l50 25q-10 194 -112 325q-43 -45 -50 -87zM-88 1001l25 -38v-37q69 -126 75 -250l25 -62l13 -38l12 -50q14 -18 13 -37l37 -88l38 -100l37 -87q82 -93 166 -93q139 0 284 255q197 -468 455 -468q52 0 106 19q26 84 63 137l12 63v75v62 l25 162v50v50v50v38l13 87v50q25 133 25 218v7l12 25l25 200q6 -1 13 -1q57 0 112 113q53 148 53 182q0 10 -4 11q-19 0 -111 -156q-38 -114 -45 -114q-1 0 -1 4q0 28 58 260q11 49 11 91q0 194 -236 209h-12h12h-12l-63 -50l-12 -37l-13 -38l-12 -37q-9 -68 -38 -125v-50 l-37 -125q-6 -92 -25 -162v-38q-13 -38 -13 -75q0 -12 1 -25l-25 -125v-87l-13 -37v-125q-15 -102 -15 -178q0 -33 3 -60q-35 25 -50 50q-91 440 -251 440q-127 0 -299 -277q-86 521 -312 521q-58 0 -125 -34q-4 -34 -4 -65.5t4 -59.5zM349 1163q-63 -98 -63 -182 q0 -100 88 -180q75 89 175 125v50q-60 -1 -100 -38q1 140 -75 225h-12h12h-25h13h-13z" />
<glyph unicode="X" horiz-adv-x="993" d="M-9 1339q63 -81 83 -152q24 -14 28 -28l27 -41l28 -56l28 -41l28 -42q37 -70 55 -125l28 -13q64 -136 124 -222l-55 -83q-287 -314 -287 -436q0 -77 114 -76h7q35 45 83 69q89 213 221 346h14h-14h14q47 -65 69 -111q77 -141 139 -221q129 16 208 97l27 96q-16 14 -14 28 q-16 14 -13 28q-149 165 -194 346l27 28l28 14q51 68 97 110l28 28l27 42l42 27q47 65 97 97q68 95 138 153q24 77 28 138q-43 15 -86 15q-13 0 -25 -1l-27 -28l-111 -83q-87 -135 -194 -207q-82 -125 -180 -194q-94 149 -94 192q0 17 15 16q4 0 10 -1h3q54 0 52 -69 q190 24 222 194q-46 32 -89 32q-33 0 -64 -18q-14 -24 -27 -28q-4 -44 -13 -44q-18 0 -57 196q-102 -41 -102 -147q0 -45 19 -102l-14 28l-13 41q-54 59 -83 111l-14 28l-56 97l-110 194h-70q-131 -92 -152 -222zM240 730q-4 -59 -4 -99q0 -78 17 -78q22 0 70 121zM766 647 l56 14l27 41l42 28l14 28l41 27l70 69l13 28l28 14q70 92 139 139l-14 41l-28 -28l-41 -27q-14 -25 -28 -28l-42 -42l-27 -41l-42 -28q-14 -24 -28 -28z" />
<glyph unicode="Y" horiz-adv-x="1420" d="M-100 601v26v-26l26 -13q13 -24 26 -26l26 -13q13 -24 26 -26l26 -26h-13h13l13 -26v13v-13q25 -9 26 -26q24 -10 13 -26l26 -13h-13l13 -13v13v-13q25 -9 39 -39h26h-26h26h26h26h52h53h52h39h52h26h39h26h65h26h52l-13 -13v-52q-8 -5 -13 -26v13q-5 -26 -13 -65v26 l-13 -39v-27v27v-183v13v-13q3 -35 13 -52v-91v13v-52v13v-13q25 -16 13 -52q32 -13 26 -52h13h-13l13 -13v13v-13q24 -9 26 -26q24 -9 26 -26h52l13 13l13 39q0 34 26 39q0 34 26 39q0 34 26 39q11 32 39 26q24 42 75 42q14 0 29 -3l13 13l-13 39q-24 9 -26 26 q-49 1 -65 39q-42 2 -39 39q-24 11 -13 26q-40 22 -40 64q0 7 1 14h-13h13h-13v40h-13h13l-13 13v-13v26v-13v13q-1 8 -1 16q0 25 14 49q-1 10 -1 18q0 31 14 47h52h52h52h26h26h26h53h26h65h26h26h52h26h65l13 13l13 39q-1 34 26 39l13 26q4 43 39 52v26v-26v26l-26 13 l-13 26l-13 26q-43 18 -52 65q-34 10 -39 39l-26 13h13l-13 13v-13v13q-25 9 -39 39q-34 10 -39 39h-13h13l-13 13v-13v13q-25 9 -26 26q-46 13 -52 65q-24 10 -13 26h-13h13h-13l-13 26v-13v13l-13 39h-13h13l-13 13v-13v13l-13 39v26v26v52q-26 16 -14 53l-13 13h-26h26 h-26h-52v-13v13l-13 -13h13h-13q-8 -25 -26 -27q-8 -24 -26 -26v-26v26v-39v13l-13 -13h13h-13v-182q27 -13 13 -39q24 -10 13 -26h13h-13h13l13 -26v13v-13l13 -39q12 -2 13 -26v13v-13q25 -9 26 -26l13 -26q39 -30 52 -52v13v-13q25 -9 27 -26q33 -10 39 -39l26 -13h-13 l13 -13v13v-13q24 -9 39 -39q33 -10 39 -39h-39h-52h-39h-26h-27h-39h-26h-65h-26h-52v26l13 26v26q18 10 13 26v26v65v26v52h-26h26h-26h-52l-13 -13q-11 -25 -26 -26l-26 -13h13h-13q-11 -44 -39 -52v-39l-13 13l-13 39l13 -13l-13 26v-13v26v-13v13l-13 39q-30 6 -39 26 h-13h13h-13q-10 -34 -39 -39v-26v26v-39v13l-13 -13h13h-13v-65q-27 10 -26 26h-13h13h-26h13h-13q-17 25 -39 13h-26q-9 -24 -26 -26v-52h13h-13l13 -13v13v-13q24 -9 26 -26l26 -13h-13h13h52l39 13v-13v13v-13l13 -39h-26h-65h-26h-52h-13h13h-13h-65q-37 -1 -52 13 l13 13q9 28 26 26v13v-13l13 26l13 26v-13v26v-13l13 26q9 28 26 26v13v-13v13q9 28 26 26v13v-13v13l13 39q26 11 26 39l39 26h-13h13l13 39q18 10 13 26l13 13l39 39q9 25 26 26q-1 34 26 39v26v-26v26q18 10 13 26q18 10 13 26q18 11 13 26q18 11 13 26l13 13l13 26v-13 v13q7 30 26 40l13 26v26v-26v39v-13l13 13h-13h13v52v39h13h-13h13v26v-26v26v26v52l-13 13q-34 -1 -39 26q-13 4 -26 26v-13v13l-26 13l-26 13l-26 13l-13 26v-13v13l-39 13q-10 18 -26 13l-13 13q-31 21 -52 26h13l-13 13v-13v13q-43 1 -52 26h-26h26h-26v-26v26v-65 l-13 -13v-26v26v-65v13v-26v13v-13q-17 -11 -17 -37q0 -12 4 -28q-18 -10 -13 -26h-13h13q-18 -13 -26 -52v26v-26q-18 -10 -13 -26q-18 -10 -13 -26q-18 -10 -13 -26q-18 -10 -13 -26h-14h14q-18 -13 -27 -52v26v-26h-13h13h-13l-13 -26q-8 -25 -26 -26q-14 -38 -39 -53 q-4 -43 -39 -52q-4 -43 -39 -52q-4 -13 -13 -52v26v-26l-39 -39q-11 -44 -39 -52q-1 -49 -39 -65q1 -34 -26 -39q1 -34 -26 -39q1 -34 -26 -39v-39q-8 -5 -13 -26v13v-26v13q-5 -26 -13 -65zM30 1030v26v-26h26h-26h26v13v-13l13 13h-13h13q9 25 39 39q3 22 12 33t27 32 q9 28 26 26l13 26q16 37 39 53q18 52 39 78l13 26v-13v13q7 29 26 39l13 26q8 39 -24 39h-2v-13v13l-13 -13h13h-13q-8 -25 -26 -26q-8 -25 -26 -26l-13 -39q-9 -28 -26 -26v-26v26v-26q-18 -11 -13 -26q-23 -13 -26 -26q-18 -11 -13 -26l-26 -13q-1 -50 -39 -66 q-4 -13 -13 -52v26v-26h-13h13l-13 -13v13q-4 -26 -13 -65zM707 523l13 39q36 -30 -13 -39zM915 276h52h39h-13h26h-13h13q11 -17 25 -17q7 0 14 4h26h39h27h65h26h52q8 24 26 26v26v-26v26h-39h-39h-39h-26h-66h-26h-52v-13v13v-13h-26h-26h-52z" />
<glyph unicode="Z" horiz-adv-x="1480" d="M-113 321q-3 -23 -3 -45q0 -93 48 -160h27q31 15 62 18l18 9q65 8 107 26q51 9 89 9l36 9h26h277l71 -53l27 -9l18 -18l26 -9l18 -9q64 -51 116 -71l27 -9l35 -9h36h36h151h27h107q246 263 246 582q0 77 -14 158q-55 103 -159 103q-22 0 -46 -5q-18 1 -34 1 q-191 0 -191 -167q0 -65 29 -155l53 -18q30 43 36 80h35h161q-25 -190 -143 -320h-26h-27h-36h-27h-62h-36h-26h-27q-51 9 -88 9q-10 0 -19 -1l-54 45l-35 9l-18 18l-27 18q-15 9 -18 17q-97 44 -151 81h-27h-160v9v-9v9l107 62l35 27q46 24 81 35l26 27l36 9l27 18l35 27 l27 9l18 8l27 9q108 80 187 107l18 18l26 9l134 71l27 9l18 18l26 9l27 9q9 10 18 9q78 54 151 71q70 46 143 54q30 68 30 130t-30 119l-45 9l-53 -9l-71 -9l-72 -17l-107 -18l-196 -27h-35l-36 -9l-36 -9h-62l-53 -9h-27q-54 -21 -98 -26l-27 -9l-143 -27l-17 -9l-152 -36 q192 259 192 414q0 85 -58 139l-36 -27q-16 -66 -44 -107l-27 -44l-36 -45q-13 -37 -27 -62l-35 -54l-18 -27l-18 -35l-44 -54l-9 -26l-18 -27l-45 -45l-35 -62q-38 -50 -54 -89q-1 -12 -1 -23q0 -98 46 -173h44l27 9l27 8l26 9q99 47 170 63l44 9q14 10 27 9l45 8 q161 51 267 63l-45 -36l-44 -18l-36 -17l-18 -18l-35 -9l-18 -18l-27 -9l-18 -18l-26 -9q-55 -45 -107 -62q-48 -47 -89 -62l-18 -18q-46 -31 -80 -45l-9 -18l-18 -9l-125 -80q-9 -15 -18 -18l-9 -18l-18 -8l-8 -27q-65 -55 -99 -116zM137 1195q93 67 93 159q0 18 -4 37 q-9 -16 -18 -18zM440 1177q242 112 242 415q0 23 -1 48h-27q-30 -64 -62 -98l-27 -142l-18 -18l-9 -27q-9 -15 -18 -18q-16 -36 -35 -62zM1251 874l45 9q90 86 205 98q7 16 7 26q0 22 -30 22q-13 0 -31 -4q-126 -64 -196 -151zM1385 89q123 108 169 241q-7 15 -18 18 l-35 -63l-18 -9l-9 -26l-18 -9z" />
<glyph unicode="[" horiz-adv-x="600" d="M74 1456q-5 -116 6 -199q17 -55 18 -109q22 -59 29 -108l6 -79q37 -172 42 -277l20 -259l6 -199l3 -40q-9 -39 -4 -80l2 -30q-20 -160 12 -279l41 -7q157 51 286 42l-3 40l-2 30l-3 40l-14 179l-30 -3l-30 -2l-129 -10l-3 40l-3 39l11 111l-4 50l-11 139q-3 53 4 80 l-3 30l-10 130l-3 39l-4 50q-21 57 -18 109l-14 49l-3 39q-7 74 -19 119l-3 30l-2 29q-38 110 -36 198l305 64q6 194 -151 148l-58 -35q-154 1 -231 -108z" />
<glyph unicode="\" horiz-adv-x="640" d="M40 1480q27 -56 40 -112q25 -59 36 -112q9 -9 10 -18l10 -19q22 -82 45 -130l16 -47l10 -47q28 -61 40 -111l5 -19l15 -65q6 -10 5 -19q24 -58 36 -102l10 -38l35 -121l10 -37q20 -61 25 -103l11 -18l5 -38q6 -9 5 -18q6 -10 5 -19l10 -19l5 -18l5 -28l30 -112 q18 -21 41 -28q32 49 35 112q-18 24 -25 56l-5 18q-16 72 -31 112q-34 147 -65 233l-5 38q-24 53 -31 102q-8 9 -10 19l-10 28l-20 65l-5 19l-10 56q-24 51 -30 102l-16 28l-10 37q-42 110 -60 187q-40 78 -56 158l-10 10l-40 130h-26q-32 -49 -35 -112z" />
<glyph unicode="]" horiz-adv-x="560" d="M72 98q-23 -193 138 -161l60 29q154 -14 240 87q16 115 12 200q-12 56 -8 109q-17 61 -19 110l1 80q-21 174 -17 280l3 259l13 199v40q12 38 11 80v30q35 156 13 279l-39 10q-161 -37 -290 -16v-40v-30l-1 -40l-2 -180h30h30l129 -2v-40v-40l-22 -109v-50l-2 -140 q-1 -52 -11 -79v-30l-2 -130v-40l-1 -50q17 -58 9 -109l9 -50v-40q0 -75 9 -120l-1 -30v-30q28 -112 17 -199z" />
<glyph unicode="^" horiz-adv-x="330" />
<glyph unicode="_" horiz-adv-x="1540" d="M95 -32l1252 252l18 -207l-1252 -253z" />
<glyph unicode="`" horiz-adv-x="660" />
<glyph unicode="a" horiz-adv-x="1000" d="M-162 939l19 -18q52 -26 77 -61l10 -27q9 -9 34 -44l71 -88q141 -140 141 -248q0 -61 -44 -112q60 0 104 19q159 -220 176 -448q52 0 88 35l17 9q27 52 71 79q0 193 -88 333q42 15 79 15q54 0 97 -32q-2 -58 -2 -108q0 -98 8 -160q5 -19 24 -65l13 9q97 34 149 96v26 q-28 114 -28 211q0 22 1 44q27 35 54 52l61 88q-44 52 -105 69l9 27l8 71q7 107 12 166q0 61 12 108l3 15l26 145l8 48l15 71l5 30l7 30l20 71l16 61q25 122 60 201q17 27 22 57q1 5 1 10q0 24 -23 38l-35 -25q-262 -387 -674 -500q-115 -53 -169 -53l-80 -18l-37 -5 q-40 -6 -74 -6q-19 0 -36 2q-44 -132 -123 -218zM139 997l61 44q403 79 657 359q5 -18 5 -33t-5 -29l-34 -122q-10 -71 -27 -115q-8 -16 -8 -60q-27 -97 -27 -139q-26 -89 -26 -142l-8 -18q0 -70 -19 -122l-17 -19h-50h-46q-75 -11 -131 -11q-29 0 -53 3l-27 52l-26 36 q-44 79 -86 132q-20 43 -45 69l-53 62zM250 939q18 26 41 26q65 0 170 -200l-196 167zM597 826q-24 79 -24 140q0 110 78 162l13 22q23 -50 24 -104q-1 -105 -91 -220z" />
<glyph unicode="b" horiz-adv-x="1074" d="M-145 56l33 -16l75 -29l22 -6l75 -29l76 -29l64 -31l44 11l32 7q66 42 119 65l64 27l54 37l33 8q66 41 118 64l33 20l32 8l32 19l44 23l32 19l32 8q11 17 22 17l189 108q57 91 124 157l11 26l21 29l22 17q51 100 118 159q9 35 9 62q0 80 -78 92l-141 42q-78 29 -232 61 l183 140q-723 238 -1021 340q-135 46 -167 45q-9 0 -9 -3q0 -12 88 -64q124 -72 123 -107q0 -25 -60 -32q90 -33 140 -95v-354v-11q0 -65 11 -116q-12 -62 -12 -111q0 -11 1 -21v-424q-59 -43 -108 -49q10 39 10 71q0 90 -85 110q-153 -68 -173 -265zM-128 313 q281 115 281 422q0 17 -1 34l-32 4q-67 -260 -248 -413v-47zM454 278v47v47v200v36v141q176 49 332 49q133 0 251 -36l86 9q-2 -68 -11 -120q-28 -99 -65 -158l-43 -10l-43 -22l-43 -11l-43 -10q-16 -18 -33 -20l-43 -11l-32 -8q-39 -22 -76 -30q-39 -22 -75 -30 q-85 -52 -162 -63zM454 1173q11 3 20 3q30 0 30 -32q0 -25 -18 -69l44 57q20 48 97 48q48 0 118 -19l54 -10q-197 -102 -285 -101q-70 0 -70 65q0 24 10 58zM562 1152q-20 -55 -20 -68q0 -4 2 -4q7 0 40 54zM616 435q125 17 125 149q0 49 -17 113q-41 35 -86 35 q-11 0 -22 -2q-40 -83 -40 -157t40 -138zM799 704q-47 -89 -47 -142q0 -78 103 -78h9l43 69v130q-41 24 -81 24q-13 0 -27 -3z" />
<glyph unicode="c" horiz-adv-x="927" d="M-145 1043v-9q0 -38 8 -66q52 -9 89 -9q13 0 24 1l7 -22l91 -106v-53q9 -7 8 -15v-23q7 -69 7 -117v-11l-7 -113q-68 -54 -99 -113q-8 -42 -8 -78q0 -15 1 -28l53 -8h38h52h129h75l23 -7q43 -8 76 -8h30q13 1 25 1q41 0 73 -8h30h23h151q26 -3 50 -3q168 0 222 154 q4 25 4 48q0 168 -200 224q55 83 55 167q0 14 -2 29q-136 -52 -136 -177v-12l-68 -106q-1 -16 11 -16q18 0 64 39l-15 -60q56 -16 91 -46l-30 -7h-23h-61l-151 7l-22 8q-34 -1 -65 -1q-73 0 -124 8v31v22v31v22v61v30l-15 128q23 -18 42 -18q23 0 41 26q78 13 106 83l-8 68 q-55 -21 -83 -61q-8 59 -30 98q-20 10 -20 18q0 11 35 20l60 60l61 -37q15 -38 15 -69v-7l-8 -98q-1 -43 -7 -75l45 7l38 45l15 16l15 15l23 7l37 38q38 62 84 98v23q10 30 7 60v23l8 22v61v22v99q-91 0 -144 60l-53 15h-30q-28 -28 -53 -38q-52 -103 -121 -158l-15 -8 l-53 -7q-143 -46 -273 -46q-54 0 -105 8q-82 -77 -113 -159zM248 998q42 7 75 23h23q-24 -63 -24 -123q0 -11 1 -21q-54 67 -75 121z" />
<glyph unicode="d" horiz-adv-x="1398" d="M-129 1295q151 -311 510 -483v-210l-10 -64l-19 -201l-28 -9q-48 -2 -76 -9q-148 -17 -235 -46q-91 -106 -95 -228h47l19 9h29h122q10 11 19 9h28q28 10 57 10q9 0 19 -1h28h123l28 19l161 100q570 269 858 739q12 55 12 101q0 19 -2 36l-19 9q-178 -37 -345 -37 q-275 0 -523 101q1 19 1 36q0 75 -11 129q-71 -18 -104 -73q-285 117 -358 374l-57 18q-163 -143 -179 -329zM46 933q37 -35 56 -64l19 -19l19 -9l19 -18l9 -18q69 -41 113 -82l29 54q-150 91 -227 201zM565 440v27v28l9 63l9 201h29l19 -9l18 -9h29l19 -9h28l19 -9l94 -9 q78 -13 141 -13q30 0 57 3l-28 -18q-12 -14 -28 -18q-13 -15 -29 -18l-18 -19l-29 -18l-38 -9q-67 -56 -132 -73q-89 -67 -169 -91zM687 686q-11 -58 -11 -87t11 -29q12 0 38 34q20 -17 37 -17q42 0 57 108h-19h19h-19q-42 -47 -66 -82q-2 55 -47 73zM772 166h28l123 82 l28 27l19 19l19 18l57 36q47 61 94 92q1 13 -9 27q-13 -14 -29 -18q-117 -149 -283 -228zM1027 1133q94 -41 177 -41q115 0 210 78h-47q-88 -27 -171 -28q-68 0 -131 19z" />
<glyph unicode="e" horiz-adv-x="835" d="M-95 11l35 -15l53 8h45h35h44l27 7h26h27q66 0 115 8q57 -1 97 -8h53l35 8q41 8 77 8q11 0 21 -1l26 8q27 -1 53 -1q70 0 124 8q98 50 106 136l-18 30l-17 23q-29 32 -36 60l-17 15l-18 23l-80 106h-35q-60 -61 -80 -129l18 -15l89 -113h-27l-71 -7h-26h-71 q-38 -3 -72 -3q-64 0 -114 10l-44 30v23v23v22l-18 166q51 -11 94 -11q120 0 172 87l-18 22l-274 8l-18 30l-9 53q-14 24 -17 45q-33 46 -36 83q-27 33 -35 61l-9 22v23q-41 70 -53 128q260 -109 519 -109q81 0 162 11l-9 -38q-74 -138 -150 -211q-9 -36 -9 -60l53 7 q179 186 230 393h9h-9h9q-1 38 -9 60q-107 -15 -207 -15q-386 0 -660 219q-8 -9 -17 -8l-71 -105v-76l35 -166q37 -70 45 -128q33 -57 44 -106q64 -101 70 -196l18 -8v-22q47 -121 47 -228q0 -26 -3 -51q-16 1 -30 1q-190 0 -226 -145zM-2 303q-9 -47 -9 -79q0 -60 34 -60 q30 0 88 50q8 31 8 54q0 68 -65 75zM359 864q-50 -67 -50 -125q0 -70 71 -128l41 26q12 -1 22 -1q102 0 101 141q-71 -23 -103 -70q1 12 1 23q0 85 -73 134h-10h10h-10z" />
<glyph unicode="f" horiz-adv-x="980" d="M-222 1275l33 -52q84 -85 116 -157q61 -51 91 -97l17 -22l16 -15l33 -45q54 -42 75 -90q47 -42 66 -89q48 -57 66 -105q66 -76 83 -157l16 -15l58 -134v-30q17 -69 17 -124v-11l24 -52q160 95 160 265q0 130 -93 303q41 -8 74 -8q120 0 132 112q-111 19 -195 19 q-37 0 -69 -4l-9 23l-16 15l-8 22q-55 54 -75 112q-50 47 -66 97h25h25h107l33 8q32 19 66 22q75 35 133 45l57 15q55 40 100 60q-55 -135 -55 -188q0 -35 23 -35q26 0 81 43q3 277 232 464v8q0 38 -9 66h-33q-310 -276 -703 -276h-8l-16 7l-17 8l-16 7l-50 15l-16 15 l-50 15q-14 8 -16 15l-17 7l-17 8q-105 58 -165 112q-50 26 -74 60q-67 -10 -108 -53q-60 -89 -60 -180q0 -14 2 -29zM-73 932q104 -241 314 -351v22q-53 49 -74 97l-33 45q-61 63 -83 119l-16 8l-17 7q-47 36 -91 53zM241 1402q74 -92 182 -97q-77 78 -182 97zM514 962 l8 -98q62 -54 108 -54q92 0 124 211q-88 -18 -124 -82q-12 68 -66 97q-37 -41 -50 -74z" />
<glyph unicode="g" horiz-adv-x="871" d="M-83 1065l20 -55l14 -20q21 -41 28 -75l13 -20q21 -40 42 -89q19 -32 23 -56l15 -24l20 -51l13 -52l11 -43q18 -49 24 -90q34 -121 34 -233q0 -111 -34 -212h21q80 60 161 67l27 -7q38 -18 75 -33l101 -61q81 -74 169 -94q33 34 60 47l89 74q13 47 13 88l-5 106l-4 50 l-4 40l-7 20l-15 135q69 40 96 101q-7 35 -34 62l-88 -7l-34 -14q-74 -21 -115 -41l-121 -27q-60 -7 -107 -27q-29 -54 -56 -81l-13 20l-7 61q-13 34 -24 77q-3 45 -30 92l-25 92l-11 30l-13 29q-22 47 -31 78l-11 35q-18 55 -43 94l27 14l33 -1q19 0 33 1h28q46 4 73 5 l17 3q22 4 37 4q56 3 95 16l62 12q19 3 27 7q17 3 27 0l-19 -62q-8 -26 -16 -51l-7 -23l-12 -40l-13 -68l-10 -44q-5 -13 -11 -57q-9 -82 -20 -121l14 -40q114 67 175 161l26 135q9 113 21 149l6 21l8 32q9 21 21 60q5 29 23 73l37 97h-35q-27 -17 -54 -27l-40 -13l-32 -7 q-42 -14 -72 -16l-37 -4l-365 -14l-54 -6l-74 -21l-27 -13l-17 -23q-72 -65 -112 -125zM306 1019q-11 -59 -11 -110q0 -109 51 -185q25 75 25 137q0 95 -60 158h-5zM342 261q15 50 15 93q0 15 -1 29l33 13h42l54 -7h141q34 -67 34 -128q0 -33 -7 -53q-98 60 -195 60 q-55 0 -109 -20zM428 443zM474 777q33 116 33 203q0 33 -5 63l-5 11q-44 -109 -44 -186q0 -53 21 -91z" />
<glyph unicode="h" horiz-adv-x="910" d="M-100 1217q75 79 75 173q0 15 -2 31q-72 -98 -73 -204zM-85 1049q30 -13 60 -13q62 0 122 57l7 -22l8 -14l14 -22l80 -183q-4 -15 -14 -21q-114 -5 -114 -85q0 -44 34 -112l7 -15l146 -15l7 -21q17 -59 22 -103v-58q-22 4 -42 3q-118 0 -133 -134q119 -84 213 -84 q76 0 137 55q105 105 105 241q0 55 -17 116l51 15q11 -8 14 -22v-37l-7 -22v-73q-10 -52 -10 -95q0 -23 3 -43l22 -22q113 21 182 95l15 182l7 37l7 51l8 22q12 38 21 58l15 44l7 43l8 22l7 22l14 22v22l8 22l7 22l7 22q41 97 51 167q-198 57 -284 227q-135 -56 -197 -168 q-7 -37 -7 -66v-7q96 -110 218 -139v-22q-4 -118 -92 -118q-11 0 -24 2h-95l-22 102l-7 29q-39 65 -51 124q-9 11 -8 22q-46 76 -65 131l-30 51q-60 124 -80 212q-37 7 -65 7q-8 -9 -15 -7q-7 -9 -15 -8q-7 -8 -14 -7l-110 -87l-43 -95l-37 -161q-36 -79 -36 -146zM630 1020 q-24 -40 -24 -60q0 -22 28 -22q8 0 18 2q4 -30 13 -30q15 0 45 81q-36 -2 -51 -29q0 42 -29 58zM849 510q102 121 102 261v8q29 79 29 139q-130 -196 -131 -408z" />
<glyph unicode="i" horiz-adv-x="334" d="M-7 353v103l38 164q13 65 19 88l16 79l3 27l10 44l3 20q9 37 12 77q6 31 13 94q6 11 20 61l38 -3l48 -55q66 -54 104 -97q5 -27 5 -55q0 -29 -5 -57v-30l-3 -23l-4 -64q-11 -120 -17 -159l-4 -59l-10 -52l-7 -40l-3 -27l-3 -51l-25 -113l-48 -55q-134 86 -200 183z M87 1308q-34 92 -34 166q0 179 199 254q164 -236 164 -412q0 -113 -68 -202l-8 21q-225 42 -253 173z" />
<glyph unicode="j" horiz-adv-x="920" d="M-63 512q250 185 351 446q-2 36 -15 58l-22 -14q-56 -72 -109 -110l-37 -37q2 -17 2 -35q0 -168 -170 -308zM-26 212q-25 -60 -25 -107q0 -53 32 -90l168 -15q7 9 15 7h22l14 8l139 7l37 7h29l37 8h29h22h29l44 7h44h73l117 14q123 73 190 183l15 73q-25 53 -30 95 q-121 301 -121 595q0 91 12 181l7 29l59 73l73 168q2 74 -63 74q-8 0 -18 -1q-55 -34 -95 -51q-26 -39 -58 -59q-28 -48 -52 -73l-29 -51l-7 -14l-44 -81l-44 -66l-7 -36l-15 -44l-7 -59l-22 -95v-117l7 -22v-58q15 -70 15 -117l7 -59q8 -11 8 -21q26 -71 29 -125l14 -44 l-95 -7q-44 -8 -81 -8q-11 0 -21 1q-11 -9 -22 -8h-29l-59 -7q-56 -20 -109 -22q69 140 69 245q0 72 -33 128q-276 -51 -276 -353q0 -44 6 -93zM339 578q-43 -73 -43 -122q0 -92 146 -105q109 56 109 165v10q-19 3 -37 3q-70 0 -116 -54q-4 74 -59 103zM873 965 q93 64 93 161q0 21 -5 44l7 15q12 38 22 58l22 88h-22q-27 -39 -58 -59q-19 -99 -52 -161v-29z" />
<glyph unicode="k" horiz-adv-x="1229" d="M-113 636q45 -30 105 -30q53 0 116 23l36 -63l35 -105l54 -117l46 -122q10 -27 30 -79l22 -40q49 -92 91 -135q171 38 276 106l-44 92q-31 69 -54 123q-49 73 -87 169q-33 79 -79 250l83 33q86 32 262 59q103 38 183 38q-70 -304 -70 -495q0 -312 188 -312q56 0 131 29 q33 63 47 112q-19 49 -19 76q0 8 2 14l-7 46q-15 121 -15 235q0 277 95 516l-61 18h-50l-48 -18l-57 -10l-274 -49l-45 -14l-204 -49q-65 -11 -175 -40q27 40 72 103l246 250l39 54l44 40l171 196l-10 51h-93q-12 -15 -50 -45q-25 -18 -52 -65q-63 -79 -124 -137l-80 -74 l-16 -18l-54 -56q-89 -74 -146 -140l-21 72q-57 180 -57 396q0 88 10 191l-76 -11q-118 -113 -243 -175v-172q12 -125 32 -184l6 -67q42 -180 60 -288q-154 -81 -171 -182zM958 1184q123 77 123 158q0 55 -56 112v-22q-94 -64 -94 -150q0 -46 27 -98z" />
<glyph unicode="l" horiz-adv-x="1010" d="M-80 110l39 -32h47h86q20 1 38 1q68 0 119 -9h47q74 -13 125 -15h39l31 -8h39l32 -8h31l16 -8l125 -8l31 -7h24l54 -8l173 -8q114 67 164 164v55q-40 19 -70 24q-152 184 -180 375l-24 40q-157 -35 -211 -173q-29 24 -56 24q-46 0 -85 -71q-4 73 -31 126q-82 -16 -82 -88 q0 -52 42 -132l32 8q16 21 23 39q22 -4 42 -4q65 0 115 44l8 -24q9 -78 39 -133h-39l-63 8h-31l-24 8h-39q-91 15 -152 15h-20h-12q-57 0 -57 26q0 9 6 21l16 8q16 53 39 86l94 204q14 47 31 78v23l8 24l8 16l16 70q9 44 23 78q0 38 8 63q3 74 16 125v24v31q8 37 8 68 q0 9 -1 18v78v24v23v24v23v24v94l-7 47q-39 25 -71 31q-178 -73 -266 -227v-23q-18 -70 -18 -128q0 -19 2 -37q8 -83 8 -163q0 -467 -266 -800q-38 -81 -39 -148zM139 853q-1 -22 -1 -43q0 -76 9 -129l8 16l8 15v32q17 88 17 153q0 23 -2 42q11 60 11 117q0 75 -19 142 l-7 -24l-8 -23v-94l-8 -24v-86l-8 -15v-79zM585 1151q-1 -22 -1 -43q0 -76 9 -130q24 60 24 126v62l7 126v31v23v157l-23 39v-31q-9 -33 -9 -78q0 -15 1 -32q0 -51 -8 -86v-164zM671 556q177 105 177 275q0 29 -5 61q-54 -45 -78 -94q-2 -148 -94 -242z" />
<glyph unicode="m" horiz-adv-x="1540" d="M-140 1080q27 -138 105 -225l30 -90q-7 1 -13 1q-68 0 -68 -62q0 -19 6 -44q141 -292 208 -292q32 0 47 67q-129 129 -165 270l-15 60q72 -76 90 -150l30 -30l30 -45l15 -45l30 -45q51 -71 75 -120l165 -330q85 3 150 45q125 104 135 240l-30 30l-15 30l-30 90l-30 30 l-15 45l-15 30q-94 152 -135 255l240 -60l45 -15l60 -45q21 -7 44 -7q151 0 331 322v-105l-15 -60v-495q-18 -59 -18 -124q0 -27 3 -56l90 -15q340 323 340 475q0 76 -85 110l-135 -150v105l15 330v150v45v120l-15 240h-75l-75 -75l-90 -120l-30 -30l-135 -240 q-449 58 -449 304q0 119 104 281q-19 52 -60 60q-15 -17 -30 -15l-90 -60q-15 -17 -30 -15q-179 -158 -270 -270l-30 -15l-30 -45l-30 -15l-30 -45l-15 -30q-80 -86 -120 -150zM790 1260q61 -32 110 -32q134 0 175 242l-60 15l-105 -135q-16 99 -90 120q-31 -97 -31 -177 q0 -17 1 -33zM1300 150l90 30q15 26 30 30l210 225q-13 28 -30 30l-45 -30l-15 -30l-30 -30l-30 -30q-119 -104 -180 -195zM1390 1335q-13 -96 -13 -183q0 -128 28 -237q32 105 32 201q0 116 -47 219z" />
<glyph unicode="n" horiz-adv-x="970" d="M-46 948q15 -20 14 -41l27 -27l69 -206q15 -21 13 -41q36 -54 41 -110q48 -101 55 -164q88 -218 96 -398q178 80 178 264q0 49 -13 106l109 -123q58 -131 130 -131q55 0 117 76q32 104 41 178v41v165l-14 82v151l14 41v274l28 110l27 96l27 82q117 180 137 343h-13h13 h-13h-41q-316 -435 -343 -905l-27 55q-56 -19 -69 -69q-35 12 -66 12.5t-57 -12.5l-28 28l-27 41l-28 55q-121 113 -178 233l-55 68q-67 -30 -109 -68q-51 -109 -55 -206zM-32 647q34 -201 81 -201q26 0 56 63q-37 144 -96 179zM530 743q36 -38 41 -83q22 11 37 11 q38 0 39 -64q0 -29 -8 -70q-128 107 -128 167q0 23 19 39zM872 1044q210 219 247 494l-27 13l-14 -41l-69 -82l-13 -55l-28 -41z" />
<glyph unicode="o" horiz-adv-x="935" d="M127 729q-28 -119 -28 -222q0 -309 255 -461q94 -42 182 -42q103 0 196 58q217 83 315 408q-1 18 -1 36q0 51 7 90l-6 55v141q-19 38 -19 71q-20 34 -25 70l-19 24l-13 31l-19 16l-12 24l-7 15l-12 24q-61 82 -88 141l-70 47q5 31 5 58q0 144 -137 162 q-383 -276 -504 -746zM304 415q46 447 302 699q236 -126 236 -420q0 -33 -3 -67q-47 -199 -158 -314q-123 -82 -207 -81q-108 0 -151 136zM398 564q4 -83 19 -133l19 -24q69 43 69 115q0 61 -50 144h-7h7h-7q-40 -47 -50 -102zM518 423q67 43 67 100q0 23 -11 49 q-55 -65 -56 -149z" />
<glyph unicode="p" horiz-adv-x="960" d="M-106 1511l8 -23l15 -7l8 -24q23 -10 38 -23h16h-16h16q6 -10 15 -7q6 -11 15 -8q18 -4 24 -15l15 -8h23q6 -11 15 -8q6 -10 24 -8h-8l8 -7v7v-7q24 -1 30 -16h16h-16h16q-3 -7 -8 -30v15v-69h-8h8h-8v-16v16v-147q-10 -6 -7 -15v-38q0 -22 -8 -31v15v39v30v16v15v31 l-8 8l8 -8l-8 8v38l-15 -7v-24v8l-8 -8h8h-8v-223v8v-15v7v-7l8 -24q-2 -35 15 -15q0 22 8 31v-116l-23 -7q-21 -2 -31 -8l-23 -8l-8 -15h-15q-2 -8 -16 -15h8h-8q-5 -15 -15 -16v-15v15v-15l-15 -8h7h-7l-8 -15l-8 -23v-31q14 -6 8 -16q14 -5 15 -15h16h-16h16h38h16h23h-8 l15 8l-7 -8l7 8h39v-62q4 -20 -8 -38v-162v8v-31v8v-8q15 -9 8 -31q14 -5 15 -15l16 -8h30l8 8l-8 -8l16 8h-8h16h-8h8l23 7q6 19 23 16l7 7q6 20 24 24v7v-7l7 15q6 16 16 15l7 16v23h8h-8h8v15v-15v15v39v31v23v15v15v23v16v38v16v31h8h-8h8q6 14 15 7q6 14 15 8l8 8l16 7 l23 8l23 8l-8 -8l15 8h-7h15h-8h8l39 7h-8h8q10 6 30 8h-7h7q6 15 24 23l-8 -7l8 7h15v8v-8v8l23 8q6 14 15 7q6 14 16 8q6 14 15 8l8 7q6 14 15 8q6 14 16 8q6 14 15 7q6 15 15 8q6 14 16 8l8 8l23 7q6 14 15 8q6 19 23 15v8v-8v8h15q7 19 24 15l7 8q7 15 16 16l23 7 q9 25 31 23q9 25 30 23q18 24 31 39q18 15 31 23h-8h8q5 14 15 15l8 16v15v-15v15v39v7v-7v7q-14 6 -8 16q-14 6 -7 15l-16 8l-7 15v-7v7q-15 5 -16 16h-8h8q-15 2 -31 15q-20 0 -30 8h-16h16h-16h-15h-23h7h-7q-27 -3 -39 7l-23 8h-23q-6 11 -15 8l-8 8h-15v7v-7l-8 7h8h-8 l-16 8h-15h15l-23 8h-15h15h-15l-15 7h7l-15 8h-16h16h-23h7h-7q-10 15 -23 8l-8 7l-15 8h-16h16l-23 8l-16 7l-31 8h8h-8h-15v8v-8v8l-15 8h-16h16h-16v7v-7v7q-21 -1 -31 8h-7h7h-7q-6 11 -16 8l-7 7q-21 -1 -31 16l-16 7h-15h15h-15q-24 8 -38 16h7h-7q-10 14 -24 8v7v-7 v7q-12 2 -30 16l-23 7l-24 8h-15v8v-8v8l-15 7l-16 8q-30 -2 -38 16h-8h8h-8h-15v7v-7v7l-16 8h-15h15h-15v8v-8v8h-23l-8 7l-23 8h-15h-16h-31q-6 -14 -15 -8l-8 -7q-5 -15 -15 -16v-15v15v-54zM325 942v7v-7v7l8 16v15v-15v15v23v39v8v-8v8q14 9 7 23v15v31v15v39 q-1 21 8 30v16v15v39l15 -8h16h-16h16q6 -11 15 -8q6 -10 23 -7h-7l7 -8v8v-8h16h-16h16v-8v8v-8l15 -7h16h-16h16l23 -8h-8h8l23 -8h-8l15 -8l24 -7l23 -8h15q6 -11 14.5 -10.5t23.5 -12.5h16h-16h24h-8l15 -8l23 -7l16 -8h15h-15h15q-6 -16 -15 -16v-7v7v-7l-23 -8v-8v8 v-8l-23 -7q-6 -14 -16 -8q-6 -14 -15 -8q-6 -14 -16 -7q-6 -14 -15 -8q-6 -19 -23 -15q-6 -15 -15 -8l-8 -8l-23 -8q-6 -14 -16 -7q-6 -15 -15 -16l-15 -7h-16l-8 -16v8l-7 -8h7h-7l-23 -7l-8 -16v8l-8 -8h8h-15h7h-7q-7 -15 -24 -15h8h-15h7h-7q-20 -9 -31 0zM363 1073 q10 -12 8 -31q15 -5 16 -16h30q5 15 16 16v23l7 8v15v15v16v31h-7h7l-7 7v-7v7q-6 11 -16 31h-30q-6 -14 -16 -15v-16v16l-8 -23v-77zM448 1050l8 -24h8h-8h15h-7h7q11 6 31 16v15v-15l8 23l15 8v15v-15v15h8h-8l8 8v-8v8l8 15v15v-15l7 23q1 31 -25 31h-6v-8v8l-7 -8h7h-7 q-5 -14 -16 -15q-5 -15 -15 -16v-15v15v-15h-8h8l-8 -8v8q-2 -15 -15 -31q0 -20 -8 -30zM694 819l8 7l-8 -7l8 7h23v8v-8v8l16 8h-8h8q6 14 15 15h23q6 14 15 8q6 14 16 7q6 20 23 16l8 8q6 19 23 15l7 8q6 20 24 23l7 15v16v-16v16h-31q-9 -25 -30 -24q-10 -24 -31 -23 q-15 -27 -46 -23q-6 -14 -16 -7q-1 -7 -15 -8h8h-8q-5 -15 -15 -16q-6 -20 -24 -23v-30z" />
<glyph unicode="q" horiz-adv-x="1081" d="M1 942q-20 -93 -20 -122q0 -13 4 -13q12 0 58 110q-41 -126 -41 -236q0 -250 215 -410q167 -115 343 -115q188 0 386 131q82 -92 157 -92q52 0 100 42q-11 125 -108 199q40 99 83 158q13 85 13 163q0 419 -361 657q10 39 10 70q0 132 -176 146q-389 -230 -563 -589 q-19 -37 -27 -37q-6 0 -6 23v6q-45 -45 -67 -91zM283 536q-2 31 -2 61q0 380 350 668q147 -32 207 -157q97 -126 97 -259q0 -109 -64 -222q-65 44 -124 44q-47 0 -91 -27v-9q0 -99 66 -149q-32 -39 -74 -41q-108 -58 -187 -58q-126 0 -178 149zM383 652q20 -50 41 -83h41 q43 86 43 143q0 80 -84 106q-42 -76 -42 -146q0 -10 1 -20zM523 586q91 39 91 127v13h-24q-57 -64 -67 -140zM946 1514q-5 -29 -5 -56q0 -113 96 -184q4 21 4 42q0 100 -95 198zM1170 378q34 28 34 53t-34 47q-10 -29 -10 -54t10 -46z" />
<glyph unicode="r" horiz-adv-x="1220" d="M-80 1343l34 -50q90 -126 184 -190v-166q-1 -22 -1 -43q0 -82 10 -139q-110 -86 -135 -208q24 -19 54 -19q36 0 81 28v-556h67l17 25q54 67 76 116l8 41v92v58q-11 73 -11 128q0 29 3 54l25 8q43 17 75 17q37 17 67 17h9q59 24 105 24h4l17 9h25q146 35 258 35 q28 0 53 -2q50 12 94 12q25 0 49 -4q-8 -13 -17 -16l-8 -25l-84 -108q-128 -117 -128 -245q0 -14 2 -29q43 13 75 33l9 25l16 17l17 16l9 17l33 42l17 16q51 63 76 108l67 83l8 16l9 17l17 25l8 25l17 16q22 77 50 125q1 47 -17 83h-33h-51h-25q-35 -11 -67 -11q-13 0 -25 2 h-25l-169 -8q212 142 212 315q0 12 -1 25h-34l-17 8q-25 -1 -48 -1q-75 0 -128 10h-59q-85 0 -143 16h-25l-101 17l-25 8l-25 8h-26l-25 9l-151 58q-87 67 -126 132q-41 41 -59 75l-8 50v49l-34 17q-112 -88 -126 -216v-91zM113 174q17 97 17 180t-17 152q-21 -91 -21 -174 t21 -158zM138 1650q-17 -42 -17 -82q0 -84 76 -158l42 8l-8 33q-70 99 -93 199zM307 829v66v25v108q66 -4 117 -25l25 -8l118 -8l109 -17q-41 -23 -75 -33l-26 -8q-64 -25 -109 -34q-8 -9 -17 -8l-58 -25q-45 -25 -84 -33zM323 929q25 -44 39 -44q20 0 20 83v10l-42 17z M391 887q85 23 85 45q0 15 -35 30q-37 -33 -50 -75zM1063 357l50 33l17 16l50 42l9 16l17 9q8 14 16 16l9 17q74 61 109 124l-17 33q-11 -13 -25 -16l-25 -33l-17 -17l-17 -17l-17 -16l-16 -17l-17 -8q-9 -15 -17 -17q-54 -64 -92 -99z" />
<glyph unicode="s" horiz-adv-x="1082" d="M-72 368q183 -369 497 -369q209 0 475 163q243 106 253 357l-31 36l-53 35q-32 15 -54 45q-73 34 -115 81q-58 22 -91 53l-16 9l-53 27q-106 53 -169 116l-15 9q-102 55 -160 116h30h30h39q11 10 23 9h22l24 9h23l23 9h23l15 9l138 17q-69 -129 -92 -231l38 -45 q58 11 100 36q23 36 46 53l15 27l7 17l8 28q48 78 70 143q26 43 37 71l8 18l15 18l31 62l46 89v54h-8h8h-8q-46 -46 -92 -62l-61 -19l-99 -26h-31l-130 -27h-23l-153 -9l-23 -9h-107h-23h-39h-22h-31h-23h-154q-84 -24 -137 -81q-31 -63 -31 -127v-15l24 -27l22 -9l23 -17 l15 -19q68 -52 108 -98l15 -9q13 -8 15 -17q88 -49 138 -99l30 -18l93 -62l107 -80q45 -18 76 -45l31 -9l30 -18l23 -18l24 -8l191 -135q-154 -117 -325 -117q-17 0 -35 1h-4q-282 0 -394 277v161q-33 17 -63 17q-36 0 -67 -26q-53 -71 -77 -125v-196zM265 742l23 -44l16 -9 l38 -45q12 -9 15 -18q13 -8 15 -17l24 -10l15 -9l7 -17l192 -116l-31 54q-43 31 -69 62q-45 22 -77 53l-15 9q-85 76 -153 107zM571 1055q-6 -26 -6 -46q0 -70 69 -70h7q41 33 41 78q0 14 -4 29q-40 -10 -68 -35q-10 37 -39 44zM863 805q15 10 22 27l15 27l24 35l15 27 q32 90 84 143l15 27l8 27l16 17l7 18l16 18l76 125l-8 53l-7 -17q-36 -53 -61 -81q-19 -52 -39 -80l-15 -8l-31 -55l-8 -17l-14 -9q-86 -157 -115 -277z" />
<glyph unicode="t" horiz-adv-x="900" d="M-100 776q1 -80 16 -135l24 -16l16 -16l31 -47l16 -16l8 -24q14 -8 16 -16l16 -16l16 -23l8 -16l7 -16l80 -119l47 24q7 41 7 80q0 150 -102 261q64 27 111 39l8 -39v-317l8 -32v-357q-12 -39 -12 -73q0 -19 4 -38q21 -4 41 -4q76 0 126 68q14 48 31 79l8 47v103v32v143 v87l-8 79v24v40v24v31v24v159l24 8l32 8l39 7l135 48l24 8h24q74 30 127 40v-24q-10 -65 -10 -117q0 -22 2 -42q27 -63 50 -63q61 0 100 428q-18 50 -47 79l-56 -8l-31 -16l-48 -7l-32 -16l-31 -8l-32 -8l-24 -8l-24 -8l-63 -24h-24q-28 -13 -55 -16q-44 -23 -88 -31v31v24 v56v23v24q1 16 1 31q0 55 -9 96l-55 16q-148 -90 -148 -262q0 -52 13 -111l-32 -8l-23 -8q-31 -20 -64 -23q-78 -55 -158 -72zM-60 483q9 -8 8 -16l8 -16l7 -16l8 -16l56 -87q55 -100 127 -159v24q8 27 8 57v7l-64 71l-142 230q-15 -47 -16 -79zM447 221l8 -48l16 8v32l8 32 v134v24v95l-24 32l-8 -47v-262zM455 609l32 -63h39q36 76 36 127q0 74 -75 95q-33 -70 -33 -135q0 -12 1 -24zM574 641q10 -44 32 -44t55 44q7 14 7 25q0 23 -31 31q-38 -29 -63 -56zM590 -342l47 -8q219 116 440 116q137 0 274 -45q117 72 117 117q0 78 -341 78 q-77 0 -172 -4q-328 -81 -365 -254zM955 697l15 15v24q8 25 8 53v11q10 30 8 63l16 87q19 53 19 100q0 18 -3 35q-66 -169 -66 -325q0 -32 3 -63z" />
<glyph unicode="u" horiz-adv-x="1000" d="M-140 385l38 22l7 30l15 16l8 15l7 30l46 128l15 30q34 120 68 189l-15 22l-16 -22l-15 -38l-45 -83l-7 -53l-8 -22q-26 -60 -38 -106l-7 -23l-8 -22l-7 -15q-28 -55 -38 -98zM-125 219q-2 -15 -2 -29q0 -54 25 -92h37h38h30h23h98h128h38h30h38h30h30h23l15 -7l151 -8 l30 -8l22 -7l53 -15l15 -8l15 -7q81 -13 136 -38l68 8q105 71 158 165v31v30l-15 128l-7 23q-44 135 -53 226v45q-13 43 -15 76v37l-8 15l-7 68v31v22v23v30l-8 23v22l-7 121l-61 15q-117 -66 -173 -166v-136q7 -84 7 -146v-27q9 -20 8 -61q12 -30 7 -60l8 -15l23 -204h-38 h-45l-15 8l-129 7h-105h-23h-37h-23h-30h-23h-151q-36 3 -60 16l38 113l15 37l37 121l8 15l30 91l8 22l37 83l8 38q30 58 45 106l38 98l15 22l8 23l15 30l7 15l15 45l15 15q23 73 53 121l15 45q3 12 3 23q0 52 -63 53q-84 -48 -128 -91q-28 -55 -53 -90l-8 -15 q-11 -39 -22 -61l-8 -15l-7 -15q-22 -56 -46 -90l-15 -38l-15 -38l-15 -45l-15 -30l-15 -45l-23 -46l-15 -37l-7 -31l-23 -37l-7 -38l-38 -98l-38 -106l-15 -37l-8 -31l-7 -22l-8 -23l-7 -22l-8 -15q-22 -87 -45 -136zM411 483q73 56 74 114q0 55 -67 112q-49 -60 -49 -119 q0 -54 42 -107zM463 475q12 -70 54 -70q48 0 135 93q52 59 52 94q0 42 -75 49q-111 -67 -166 -166zM1052 724l7 -15l8 -121l7 -22l8 -91q12 -23 15 -45h22l23 38l-23 75v23l-7 53v30q-15 65 -15 118v17l-23 8l-22 -38v-30z" />
<glyph unicode="v" horiz-adv-x="1140" d="M-85 957q11 -13 9 -36q16 -7 9 -18q17 -6 18 -26v9v-9q16 -6 18 -18q17 -8 17 -18q7 -12 18 -36q17 -6 18 -18l9 -17q29 -13 36 -45q23 -7 26 -27v-9v9l9 -9h-9h9q9 -16 18 -18l9 -18v9v-9q17 -7 18 -26v9l9 -9h-9h9q9 -16 18 -18v-18l18 -9q17 -20 26 -36v9v-9l18 -17 h-9l9 -9v9l9 -9h-9h9l18 -27v9v-18v9v-9q17 -6 18 -18l18 -9l9 -27l17 -9h-8l8 -9v9l9 -9h-9h9q9 -16 18 -17l9 -27q23 -7 27 -27q22 -7 18 -27h9h-9h9q9 -16 18 -18q8 -16 17 -17l9 -27l18 -9h-9l9 -9v9v-9q17 -6 27 -27q23 -7 27 -27h9h-9l9 -9v9v-9q16 -5 26 -26h18h-18 h18v-9v9v-9h18h-18h18q3 -6 18 -9h-9h9l18 -9h-9h9q31 3 44 -9l9 9h45v9v-9v9h18v9v-9l9 9h-9l18 9l9 18v-9v17v-8v8q16 12 9 27h8h-8h8v18v-18v18v27v27l9 26v18v18v45h9h-9h9v35l9 18v36h9h-9l9 9v-9v9v27v-9l9 9h-9h9v35l9 18v27v-9v18v-9v9q17 11 9 27v18h9h-9h9v35 q17 12 9 27q5 3 9 18v-9v18v-9v9q17 11 9 27q16 11 9 26q16 12 8 27q17 12 9 27q6 3 9 18v-9l9 18l9 18l9 26l9 27q-2 25 9 36v18l9 18v17h9h-9l9 9v-9v18v-9v9q17 12 9 27h9h-9h9l9 18v18v-18v18l17 9v18v-18v18q19 7 18 26h9h-9h9q6 17 18 18l9 27h9h-9q12 9 27 27 q10 25 26 35l9 27q13 7 9 18l18 9q1 29 18 36v18v-18v18v17v36q-16 7 -9 18q-16 7 -9 18q-22 7 -18 27q-16 6 -18 17h-17h17l-26 9l-9 18h-18h18h-18q-7 13 -27 9h9l-18 9l-27 9h-44q-11 -17 -36 -9q-7 -22 -27 -18l-9 -27l-17 -8q-3 -30 -27 -36q0 -23 -18 -27v-9v9 q-2 -16 -18 -27q0 -23 -18 -27l-9 -26v9v-9q-18 -8 -17 -27l-27 -27q-6 -17 -18 -18q0 -23 -18 -26v-9v9q-3 -18 -9 -45v18v-18q-17 -12 -9 -27l-9 -27q-12 -7 -9 -26v8l-9 -17q-2 -15 -8 -45q-6 -3 -9 -18v9l-9 -18v-18v18v-27v9v-9q-17 -11 -9 -26q-17 -12 -9 -27h-9h9h-9 l-9 -27v-27q-17 -11 -9 -26l-9 -9v-18h-9h9l-9 -9v9q-3 -18 -9 -45v18l-9 -36l-9 -35l-8 -36v-27v9v-18v9v-9q-17 -11 -9 -44q-6 -4 -9 -18v9v-36v9l-9 -9h9h-9v-36q-28 2 -27 27h-9h9h-9l-18 27v-9v9q-17 6 -18 27v-9v9q-16 6 -18 17h-8h8h-8l-18 27v-9v18v-9v9 q-17 6 -18 18q-17 6 -18 18q-17 7 -18 18l-9 18q-29 12 -35 44q-30 12 -36 45q-29 11 -27 35q-22 8 -18 27q-29 11 -27 36q-28 11 -26 36q-23 7 -27 26q-30 3 -36 27h-9h9h-18h9h-9q-11 17 -26 9v9v-9v9h-27v9v-9v9h-18h18h-18h-45q-9 -18 -26 -9q-7 -16 -18 -9l-9 -9 q0 -23 -18 -27v-17v17v-62zM183 448q17 -7 18 -36h8h-8l8 -8v8v-8q17 -6 27 -27q23 -7 27 -27h27q6 17 18 18l9 18l-9 9l9 -9l-9 18v-9v17v-8l-9 8h9l-9 9v-9l-9 9h9h-9q-9 16 -18 18l-9 18v-9v9q-16 7 -9 18q-16 7 -9 18q-16 7 -9 18l-9 9h-18h18h-18v-9v9l-8 -9h8h-8 q-6 -17 -18 -18v-45zM227 975l9 -9l-9 9l9 -9v-27l9 -9l9 -27h9h-9h9l18 -26v9v-9q17 -6 27 -27q54 7 53 53l-18 9l-9 27v-9l-9 9h9l-9 9v-9l-8 9h8h-8q-9 16 -18 18l-9 18q2 33 -27 35q-7 -16 -18 -8q0 -29 -18 -36zM415 761v9v-9q2 -25 9 -36h26q6 17 18 18v44 q-2 25 -9 36h-18h18h-18q-6 -16 -17 -9v-9v9l-9 -27v9v-18v9v-17v8v-17zM486 761q16 -7 9 -18l9 -9h27q7 23 27 27v9v-9v9l8 17v-9v18v-9v9v18v36q-16 7 -8 18l-9 9h-27q-1 -8 -18 -18v-18v18v-18h-9h9q-12 -9 -18 -36v18v-62zM959 868l27 9q0 23 18 26v9v-9l9 18 q10 25 26 36l9 27l9 18l9 17v18q12 7 9 18q12 7 11.5 16t15.5 20l9 27q6 19 18 17q0 29 17 36q-1 25 9 36h-26l-9 -18l-27 -18v-18v18l-9 -27q-12 -7 -9 -17l-18 -9q0 -29 -18 -36l-9 -27h-8h8h-8l-9 -27v9l-9 -18v-17v17v-26v9v-9q-17 -12 -9 -27l-9 -9q1 -24 -18 -36v-18 v18v-27v9v-9q-12 -7 -12 -17q0 -4 3 -9z" />
<glyph unicode="w" horiz-adv-x="1340" d="M-100 639q22 -13 25 -25l87 -238l50 25q-10 194 -112 325q-43 -45 -50 -87zM-88 1001l25 -38v-37q69 -126 75 -250l25 -62l13 -38l12 -50q14 -18 13 -37l37 -88l38 -100l37 -87q82 -93 166 -93q139 0 284 255q197 -468 455 -468q52 0 106 19q26 84 63 137l12 63v75v62 l25 162v50v50v50v38l13 87v50q25 133 25 218v7l12 25l25 200q6 -1 13 -1q57 0 112 113q53 148 53 182q0 10 -4 11q-19 0 -111 -156q-38 -114 -45 -114q-1 0 -1 4q0 28 58 260q11 49 11 91q0 194 -236 209h-12h12h-12l-63 -50l-12 -37l-13 -38l-12 -37q-9 -68 -38 -125v-50 l-37 -125q-6 -92 -25 -162v-38q-13 -38 -13 -75q0 -12 1 -25l-25 -125v-87l-13 -37v-125q-15 -102 -15 -178q0 -33 3 -60q-35 25 -50 50q-91 440 -251 440q-127 0 -299 -277q-86 521 -312 521q-58 0 -125 -34q-4 -34 -4 -65.5t4 -59.5zM349 1163q-63 -98 -63 -182 q0 -100 88 -180q75 89 175 125v50q-60 -1 -100 -38q1 140 -75 225h-12h12h-25h13h-13z" />
<glyph unicode="x" horiz-adv-x="993" d="M-9 1339q63 -81 83 -152q24 -14 28 -28l27 -41l28 -56l28 -41l28 -42q37 -70 55 -125l28 -13q64 -136 124 -222l-55 -83q-287 -314 -287 -436q0 -77 114 -76h7q35 45 83 69q89 213 221 346h14h-14h14q47 -65 69 -111q77 -141 139 -221q129 16 208 97l27 96q-16 14 -14 28 q-16 14 -13 28q-149 165 -194 346l27 28l28 14q51 68 97 110l28 28l27 42l42 27q47 65 97 97q68 95 138 153q24 77 28 138q-43 15 -86 15q-13 0 -25 -1l-27 -28l-111 -83q-87 -135 -194 -207q-82 -125 -180 -194q-94 149 -94 192q0 17 15 16q4 0 10 -1h3q54 0 52 -69 q190 24 222 194q-46 32 -89 32q-33 0 -64 -18q-14 -24 -27 -28q-4 -44 -13 -44q-18 0 -57 196q-102 -41 -102 -147q0 -45 19 -102l-14 28l-13 41q-54 59 -83 111l-14 28l-56 97l-110 194h-70q-131 -92 -152 -222zM240 730q-4 -59 -4 -99q0 -78 17 -78q22 0 70 121zM766 647 l56 14l27 41l42 28l14 28l41 27l70 69l13 28l28 14q70 92 139 139l-14 41l-28 -28l-41 -27q-14 -25 -28 -28l-42 -42l-27 -41l-42 -28q-14 -24 -28 -28z" />
<glyph unicode="y" horiz-adv-x="1420" d="M-100 601v26v-26l26 -13q13 -24 26 -26l26 -13q13 -24 26 -26l26 -26h-13h13l13 -26v13v-13q25 -9 26 -26q24 -10 13 -26l26 -13h-13l13 -13v13v-13q25 -9 39 -39h26h-26h26h26h26h52h53h52h39h52h26h39h26h65h26h52l-13 -13v-52q-8 -5 -13 -26v13q-5 -26 -13 -65v26 l-13 -39v-27v27v-183v13v-13q3 -35 13 -52v-91v13v-52v13v-13q25 -16 13 -52q32 -13 26 -52h13h-13l13 -13v13v-13q24 -9 26 -26q24 -9 26 -26h52l13 13l13 39q0 34 26 39q0 34 26 39q0 34 26 39q11 32 39 26q24 42 75 42q14 0 29 -3l13 13l-13 39q-24 9 -26 26 q-49 1 -65 39q-42 2 -39 39q-24 11 -13 26q-40 22 -40 64q0 7 1 14h-13h13h-13v40h-13h13l-13 13v-13v26v-13v13q-1 8 -1 16q0 25 14 49q-1 10 -1 18q0 31 14 47h52h52h52h26h26h26h53h26h65h26h26h52h26h65l13 13l13 39q-1 34 26 39l13 26q4 43 39 52v26v-26v26l-26 13 l-13 26l-13 26q-43 18 -52 65q-34 10 -39 39l-26 13h13l-13 13v-13v13q-25 9 -39 39q-34 10 -39 39h-13h13l-13 13v-13v13q-25 9 -26 26q-46 13 -52 65q-24 10 -13 26h-13h13h-13l-13 26v-13v13l-13 39h-13h13l-13 13v-13v13l-13 39v26v26v52q-26 16 -14 53l-13 13h-26h26 h-26h-52v-13v13l-13 -13h13h-13q-8 -25 -26 -27q-8 -24 -26 -26v-26v26v-39v13l-13 -13h13h-13v-182q27 -13 13 -39q24 -10 13 -26h13h-13h13l13 -26v13v-13l13 -39q12 -2 13 -26v13v-13q25 -9 26 -26l13 -26q39 -30 52 -52v13v-13q25 -9 27 -26q33 -10 39 -39l26 -13h-13 l13 -13v13v-13q24 -9 39 -39q33 -10 39 -39h-39h-52h-39h-26h-27h-39h-26h-65h-26h-52v26l13 26v26q18 10 13 26v26v65v26v52h-26h26h-26h-52l-13 -13q-11 -25 -26 -26l-26 -13h13h-13q-11 -44 -39 -52v-39l-13 13l-13 39l13 -13l-13 26v-13v26v-13v13l-13 39q-30 6 -39 26 h-13h13h-13q-10 -34 -39 -39v-26v26v-39v13l-13 -13h13h-13v-65q-27 10 -26 26h-13h13h-26h13h-13q-17 25 -39 13h-26q-9 -24 -26 -26v-52h13h-13l13 -13v13v-13q24 -9 26 -26l26 -13h-13h13h52l39 13v-13v13v-13l13 -39h-26h-65h-26h-52h-13h13h-13h-65q-37 -1 -52 13 l13 13q9 28 26 26v13v-13l13 26l13 26v-13v26v-13l13 26q9 28 26 26v13v-13v13q9 28 26 26v13v-13v13l13 39q26 11 26 39l39 26h-13h13l13 39q18 10 13 26l13 13l39 39q9 25 26 26q-1 34 26 39v26v-26v26q18 10 13 26q18 10 13 26q18 11 13 26q18 11 13 26l13 13l13 26v-13 v13q7 30 26 40l13 26v26v-26v39v-13l13 13h-13h13v52v39h13h-13h13v26v-26v26v26v52l-13 13q-34 -1 -39 26q-13 4 -26 26v-13v13l-26 13l-26 13l-26 13l-13 26v-13v13l-39 13q-10 18 -26 13l-13 13q-31 21 -52 26h13l-13 13v-13v13q-43 1 -52 26h-26h26h-26v-26v26v-65 l-13 -13v-26v26v-65v13v-26v13v-13q-17 -11 -17 -37q0 -12 4 -28q-18 -10 -13 -26h-13h13q-18 -13 -26 -52v26v-26q-18 -10 -13 -26q-18 -10 -13 -26q-18 -10 -13 -26q-18 -10 -13 -26h-14h14q-18 -13 -27 -52v26v-26h-13h13h-13l-13 -26q-8 -25 -26 -26q-14 -38 -39 -53 q-4 -43 -39 -52q-4 -43 -39 -52q-4 -13 -13 -52v26v-26l-39 -39q-11 -44 -39 -52q-1 -49 -39 -65q1 -34 -26 -39q1 -34 -26 -39q1 -34 -26 -39v-39q-8 -5 -13 -26v13v-26v13q-5 -26 -13 -65zM30 1030v26v-26h26h-26h26v13v-13l13 13h-13h13q9 25 39 39q3 22 12 33t27 32 q9 28 26 26l13 26q16 37 39 53q18 52 39 78l13 26v-13v13q7 29 26 39l13 26q8 39 -24 39h-2v-13v13l-13 -13h13h-13q-8 -25 -26 -26q-8 -25 -26 -26l-13 -39q-9 -28 -26 -26v-26v26v-26q-18 -11 -13 -26q-23 -13 -26 -26q-18 -11 -13 -26l-26 -13q-1 -50 -39 -66 q-4 -13 -13 -52v26v-26h-13h13l-13 -13v13q-4 -26 -13 -65zM707 523l13 39q36 -30 -13 -39zM915 276h52h39h-13h26h-13h13q11 -17 25 -17q7 0 14 4h26h39h27h65h26h52q8 24 26 26v26v-26v26h-39h-39h-39h-26h-66h-26h-52v-13v13v-13h-26h-26h-52z" />
<glyph unicode="z" horiz-adv-x="1480" d="M-113 321q-3 -23 -3 -45q0 -93 48 -160h27q31 15 62 18l18 9q65 8 107 26q51 9 89 9l36 9h26h277l71 -53l27 -9l18 -18l26 -9l18 -9q64 -51 116 -71l27 -9l35 -9h36h36h151h27h107q246 263 246 582q0 77 -14 158q-55 103 -159 103q-22 0 -46 -5q-18 1 -34 1 q-191 0 -191 -167q0 -65 29 -155l53 -18q30 43 36 80h35h161q-25 -190 -143 -320h-26h-27h-36h-27h-62h-36h-26h-27q-51 9 -88 9q-10 0 -19 -1l-54 45l-35 9l-18 18l-27 18q-15 9 -18 17q-97 44 -151 81h-27h-160v9v-9v9l107 62l35 27q46 24 81 35l26 27l36 9l27 18l35 27 l27 9l18 8l27 9q108 80 187 107l18 18l26 9l134 71l27 9l18 18l26 9l27 9q9 10 18 9q78 54 151 71q70 46 143 54q30 68 30 130t-30 119l-45 9l-53 -9l-71 -9l-72 -17l-107 -18l-196 -27h-35l-36 -9l-36 -9h-62l-53 -9h-27q-54 -21 -98 -26l-27 -9l-143 -27l-17 -9l-152 -36 q192 259 192 414q0 85 -58 139l-36 -27q-16 -66 -44 -107l-27 -44l-36 -45q-13 -37 -27 -62l-35 -54l-18 -27l-18 -35l-44 -54l-9 -26l-18 -27l-45 -45l-35 -62q-38 -50 -54 -89q-1 -12 -1 -23q0 -98 46 -173h44l27 9l27 8l26 9q99 47 170 63l44 9q14 10 27 9l45 8 q161 51 267 63l-45 -36l-44 -18l-36 -17l-18 -18l-35 -9l-18 -18l-27 -9l-18 -18l-26 -9q-55 -45 -107 -62q-48 -47 -89 -62l-18 -18q-46 -31 -80 -45l-9 -18l-18 -9l-125 -80q-9 -15 -18 -18l-9 -18l-18 -8l-8 -27q-65 -55 -99 -116zM137 1195q93 67 93 159q0 18 -4 37 q-9 -16 -18 -18zM440 1177q242 112 242 415q0 23 -1 48h-27q-30 -64 -62 -98l-27 -142l-18 -18l-9 -27q-9 -15 -18 -18q-16 -36 -35 -62zM1251 874l45 9q90 86 205 98q7 16 7 26q0 22 -30 22q-13 0 -31 -4q-126 -64 -196 -151zM1385 89q123 108 169 241q-7 15 -18 18 l-35 -63l-18 -9l-9 -26l-18 -9z" />
<glyph unicode="&#xad;" d="M84 508l7 -26v-27l7 -8l6 -26q13 -4 14 -16l27 5l20 3l34 6l20 3l27 4l21 4l13 2l14 2l20 3l14 2l33 6l14 2l27 4l27 5l14 2l13 2l14 2l33 6l34 5l21 4l27 4l20 3l13 3l14 2l20 3l14 2l34 6l13 2l27 4q5 18 14 20q1 15 13 38q0 24 7 37v18v-18v18v18v45l-7 8q-1 24 -7 35 q-5 11 -13 33l-20 6l-14 -2l-13 -2l-27 -5l-21 -3l-13 -2l-34 -6l-14 -2l-27 -4l-13 -2l-14 -3l-13 -2l-34 -5l-34 -6l-13 -2l-34 -5l-14 -3l-27 -4l-27 -4l-13 -3l-21 -3l-27 -4l-13 -2l-14 -3l-27 -4l-20 -3l-27 -5l-14 -2l-13 -2l-27 -4q-6 -18 -14 -12l-7 -19v9v-18v9 l-6 -10l6 1q-9 -10 -13 -38v18q1 -42 -7 -55v-9v9v-44z" />
<glyph unicode="&#x2000;" horiz-adv-x="910" />
<glyph unicode="&#x2001;" horiz-adv-x="1820" />
<glyph unicode="&#x2002;" horiz-adv-x="910" />
<glyph unicode="&#x2003;" horiz-adv-x="1820" />
<glyph unicode="&#x2004;" horiz-adv-x="606" />
<glyph unicode="&#x2005;" horiz-adv-x="455" />
<glyph unicode="&#x2006;" horiz-adv-x="303" />
<glyph unicode="&#x2007;" horiz-adv-x="303" />
<glyph unicode="&#x2008;" horiz-adv-x="227" />
<glyph unicode="&#x2009;" horiz-adv-x="364" />
<glyph unicode="&#x200a;" horiz-adv-x="101" />
<glyph unicode="&#x2010;" d="M84 508l7 -26v-27l7 -8l6 -26q13 -4 14 -16l27 5l20 3l34 6l20 3l27 4l21 4l13 2l14 2l20 3l14 2l33 6l14 2l27 4l27 5l14 2l13 2l14 2l33 6l34 5l21 4l27 4l20 3l13 3l14 2l20 3l14 2l34 6l13 2l27 4q5 18 14 20q1 15 13 38q0 24 7 37v18v-18v18v18v45l-7 8q-1 24 -7 35 q-5 11 -13 33l-20 6l-14 -2l-13 -2l-27 -5l-21 -3l-13 -2l-34 -6l-14 -2l-27 -4l-13 -2l-14 -3l-13 -2l-34 -5l-34 -6l-13 -2l-34 -5l-14 -3l-27 -4l-27 -4l-13 -3l-21 -3l-27 -4l-13 -2l-14 -3l-27 -4l-20 -3l-27 -5l-14 -2l-13 -2l-27 -4q-6 -18 -14 -12l-7 -19v9v-18v9 l-6 -10l6 1q-9 -10 -13 -38v18q1 -42 -7 -55v-9v9v-44z" />
<glyph unicode="&#x2011;" d="M84 508l7 -26v-27l7 -8l6 -26q13 -4 14 -16l27 5l20 3l34 6l20 3l27 4l21 4l13 2l14 2l20 3l14 2l33 6l14 2l27 4l27 5l14 2l13 2l14 2l33 6l34 5l21 4l27 4l20 3l13 3l14 2l20 3l14 2l34 6l13 2l27 4q5 18 14 20q1 15 13 38q0 24 7 37v18v-18v18v18v45l-7 8q-1 24 -7 35 q-5 11 -13 33l-20 6l-14 -2l-13 -2l-27 -5l-21 -3l-13 -2l-34 -6l-14 -2l-27 -4l-13 -2l-14 -3l-13 -2l-34 -5l-34 -6l-13 -2l-34 -5l-14 -3l-27 -4l-27 -4l-13 -3l-21 -3l-27 -4l-13 -2l-14 -3l-27 -4l-20 -3l-27 -5l-14 -2l-13 -2l-27 -4q-6 -18 -14 -12l-7 -19v9v-18v9 l-6 -10l6 1q-9 -10 -13 -38v18q1 -42 -7 -55v-9v9v-44z" />
<glyph unicode="&#x2012;" d="M84 508l7 -26v-27l7 -8l6 -26q13 -4 14 -16l27 5l20 3l34 6l20 3l27 4l21 4l13 2l14 2l20 3l14 2l33 6l14 2l27 4l27 5l14 2l13 2l14 2l33 6l34 5l21 4l27 4l20 3l13 3l14 2l20 3l14 2l34 6l13 2l27 4q5 18 14 20q1 15 13 38q0 24 7 37v18v-18v18v18v45l-7 8q-1 24 -7 35 q-5 11 -13 33l-20 6l-14 -2l-13 -2l-27 -5l-21 -3l-13 -2l-34 -6l-14 -2l-27 -4l-13 -2l-14 -3l-13 -2l-34 -5l-34 -6l-13 -2l-34 -5l-14 -3l-27 -4l-27 -4l-13 -3l-21 -3l-27 -4l-13 -2l-14 -3l-27 -4l-20 -3l-27 -5l-14 -2l-13 -2l-27 -4q-6 -18 -14 -12l-7 -19v9v-18v9 l-6 -10l6 1q-9 -10 -13 -38v18q1 -42 -7 -55v-9v9v-44z" />
<glyph unicode="&#x2013;" horiz-adv-x="1168" d="M84 508l10 -26v-27l11 -8l9 -26q19 -4 20 -16l41 5l29 3l51 6l29 3l40 4l32 4l19 2l21 2l29 3l21 2l49 6l21 2l40 4l40 5l21 2l19 2l21 2l49 6l50 5l31 4l41 4l29 3l19 3l21 2l30 3l21 2l50 6l19 2l41 4q7 18 20 20q2 15 20 38q0 24 10 37v18v-18v18v18v45l-10 8 q-2 24 -11 35q-7 11 -19 33l-30 6l-21 -2l-19 -2l-40 -5l-31 -3l-19 -2l-51 -6l-21 -2l-40 -4l-19 -2l-21 -3l-19 -2l-50 -5l-51 -6l-19 -2l-51 -5l-20 -3l-41 -4l-40 -4l-19 -3l-31 -3l-40 -4l-19 -2l-21 -3l-40 -4l-30 -3l-40 -5l-21 -2l-19 -2l-40 -4q-9 -18 -21 -12 l-10 -19v9v-18v9l-9 -10l9 1q-14 -10 -20 -38v18q2 -42 -10 -55v-9v9v-44z" />
<glyph unicode="&#x2014;" horiz-adv-x="2192" d="M84 508l21 -26v-27l21 -8l17 -26q39 -4 42 -16l80 5l59 3l101 6l60 3l80 4l62 4l39 2l41 2l60 3l41 2l98 6l42 2l80 4l80 5l42 2l38 2l42 2l98 6l101 5l62 4l80 4l59 3l39 3l42 2l59 3l41 2l101 6l39 2l80 4q15 18 42 20q3 15 38 38q0 24 21 37v18v-18v18v18v45l-21 8 q-3 24 -21 35q-14 11 -38 33l-60 6l-41 -2l-39 -2l-80 -5l-62 -3l-39 -2l-101 -6l-41 -2l-80 -4l-39 -2l-41 -3l-39 -2l-101 -5l-101 -6l-38 -2l-101 -5l-42 -3l-80 -4l-80 -4l-39 -3l-62 -3l-80 -4l-39 -2l-41 -3l-81 -4l-59 -3l-80 -5l-42 -2l-38 -2l-80 -4 q-18 -18 -42 -12l-21 -19v9v-18v9l-17 -10l17 1q-26 -10 -38 -38v18q3 -42 -21 -55v-9v9v-44z" />
<glyph unicode="&#x202f;" horiz-adv-x="364" />
<glyph unicode="&#x205f;" horiz-adv-x="455" />
<glyph unicode="&#x25fc;" horiz-adv-x="1560" d="M0 0v1560h1560v-1560h-1560z" />
</font>
</defs>
</svg>
